<svg width="33" height="37" viewBox="0 0 33 37" fill="none" xmlns="http://www.w3.org/2000/svg">
<g clip-path="url(#clip0_4_1202)">
<path d="M16.2502 16.1901C19.1968 16.1901 21.5835 13.8034 21.5835 10.8568C21.5835 7.9101 19.1968 5.52344 16.2502 5.52344C13.3035 5.52344 10.9168 7.9101 10.9168 10.8568C10.9168 13.8034 13.3035 16.1901 16.2502 16.1901ZM16.2502 8.1901C17.7168 8.1901 18.9168 9.3901 18.9168 10.8568C18.9168 12.3234 17.7168 13.5234 16.2502 13.5234C14.7835 13.5234 13.5835 12.3234 13.5835 10.8568C13.5835 9.3901 14.7835 8.1901 16.2502 8.1901ZM16.2502 17.5234C12.6902 17.5234 5.5835 19.3101 5.5835 22.8568V25.5234C5.5835 26.2568 6.1835 26.8568 6.91683 26.8568H25.5835C26.3168 26.8568 26.9168 26.2568 26.9168 25.5234V22.8568C26.9168 19.3101 19.8102 17.5234 16.2502 17.5234ZM24.2502 24.1901H8.25016V22.8701C8.51683 21.9101 12.6502 20.1901 16.2502 20.1901C19.8502 20.1901 23.9835 21.9101 24.2502 22.8568V24.1901Z" fill="white"/>
</g>
<defs>
<clipPath id="clip0_4_1202">
<rect x="0.25" y="0.189941" width="32" height="32" rx="16" fill="white"/>
</clipPath>
</defs>
</svg>
