<svg width="255" height="65" viewBox="0 0 255 65" fill="none" xmlns="http://www.w3.org/2000/svg">
<rect x="0.5" y="0.390137" width="254.5" height="64" rx="10" fill="#173C61" fill-opacity="0.06"/>
<g clip-path="url(#clip0_4_204)">
<g clip-path="url(#clip1_4_204)">
<g clip-path="url(#clip2_4_204)">
<path d="M24.5 32.3901C24.5 22.4491 32.559 14.3901 42.5 14.3901C52.441 14.3901 60.5 22.4491 60.5 32.3901C60.5 42.3311 52.441 50.3901 42.5 50.3901H24.5V32.3901Z" fill="#226269"/>
<path fill-rule="evenodd" clip-rule="evenodd" d="M50.1441 37.6301C50.9451 37.6301 51.5621 38.2461 51.6241 39.0481V42.5001H48.7881V40.2191H35.1641C34.7732 40.2139 34.3997 40.0563 34.1233 39.7798C33.8469 39.5034 33.6893 39.13 33.6841 38.7391V26.1021H36.6441V37.6301H45.9521V26.1021H48.9111V37.6301H50.1441Z" fill="#FEFEFE"/>
</g>
</g>
</g>
<g clip-path="url(#clip3_4_204)">
<path d="M95.6875 36.6245L95.5469 40.6323H94.1953V37.8901H93.0781V36.6245H95.6875ZM85.8672 37.8901V26.5151H87.3828V36.6636H92.9844V26.5151H94.4922V37.8901H85.8672ZM98.8672 35.6011L102.766 29.437H104.219V37.8901H102.766V31.7261L98.8672 37.8901H97.4297V29.437H98.8672V35.6011ZM109.984 29.437V37.8901H108.531V29.437H109.984ZM112.82 29.437V30.6089H105.75V29.437H112.82ZM115.688 31.062V41.1401H114.234V29.437H115.562L115.688 31.062ZM121.383 33.5933V33.7573C121.383 34.3719 121.31 34.9422 121.164 35.4683C121.018 35.9891 120.805 36.4422 120.523 36.8276C120.247 37.2131 119.906 37.5125 119.5 37.7261C119.094 37.9396 118.628 38.0464 118.102 38.0464C117.565 38.0464 117.091 37.9578 116.68 37.7808C116.268 37.6037 115.919 37.3459 115.633 37.0073C115.346 36.6688 115.117 36.2625 114.945 35.7886C114.779 35.3146 114.664 34.7808 114.602 34.187V33.312C114.664 32.687 114.781 32.1271 114.953 31.6323C115.125 31.1375 115.352 30.7157 115.633 30.3667C115.919 30.0125 116.266 29.7443 116.672 29.562C117.078 29.3745 117.547 29.2808 118.078 29.2808C118.609 29.2808 119.081 29.3849 119.492 29.5933C119.904 29.7964 120.25 30.0881 120.531 30.4683C120.812 30.8485 121.023 31.3042 121.164 31.8354C121.31 32.3615 121.383 32.9474 121.383 33.5933ZM119.93 33.7573V33.5933C119.93 33.1714 119.885 32.7756 119.797 32.4058C119.708 32.0308 119.57 31.7026 119.383 31.4214C119.201 31.1349 118.966 30.911 118.68 30.7495C118.393 30.5828 118.052 30.4995 117.656 30.4995C117.292 30.4995 116.974 30.562 116.703 30.687C116.438 30.812 116.211 30.9813 116.023 31.1948C115.836 31.4032 115.682 31.6427 115.562 31.9136C115.448 32.1792 115.362 32.4552 115.305 32.7417V34.7651C115.409 35.1297 115.555 35.4735 115.742 35.7964C115.93 36.1141 116.18 36.3719 116.492 36.5698C116.805 36.7625 117.198 36.8589 117.672 36.8589C118.062 36.8589 118.398 36.7782 118.68 36.6167C118.966 36.45 119.201 36.2235 119.383 35.937C119.57 35.6506 119.708 35.3224 119.797 34.9526C119.885 34.5776 119.93 34.1792 119.93 33.7573ZM125.508 37.0151L127.859 29.437H129.406L126.016 39.1948C125.938 39.4032 125.833 39.6271 125.703 39.8667C125.578 40.1115 125.417 40.3433 125.219 40.562C125.021 40.7808 124.781 40.9578 124.5 41.0933C124.224 41.2339 123.893 41.3042 123.508 41.3042C123.393 41.3042 123.247 41.2886 123.07 41.2573C122.893 41.2261 122.768 41.2 122.695 41.1792L122.688 40.0073C122.729 40.0125 122.794 40.0177 122.883 40.0229C122.977 40.0334 123.042 40.0386 123.078 40.0386C123.406 40.0386 123.685 39.9943 123.914 39.9058C124.143 39.8224 124.336 39.6792 124.492 39.4761C124.654 39.2782 124.792 39.0047 124.906 38.6558L125.508 37.0151ZM123.781 29.437L125.977 35.9995L126.352 37.5229L125.312 38.0542L122.203 29.437H123.781ZM133.984 36.8589C134.328 36.8589 134.646 36.7886 134.938 36.6479C135.229 36.5073 135.469 36.3146 135.656 36.0698C135.844 35.8198 135.951 35.536 135.977 35.2183H137.352C137.326 35.7183 137.156 36.1844 136.844 36.6167C136.536 37.0438 136.133 37.3901 135.633 37.6558C135.133 37.9162 134.583 38.0464 133.984 38.0464C133.349 38.0464 132.794 37.9344 132.32 37.7104C131.852 37.4865 131.461 37.1792 131.148 36.7886C130.841 36.3979 130.609 35.95 130.453 35.4448C130.302 34.9344 130.227 34.3953 130.227 33.8276V33.4995C130.227 32.9318 130.302 32.3953 130.453 31.8901C130.609 31.3797 130.841 30.9292 131.148 30.5386C131.461 30.1479 131.852 29.8407 132.32 29.6167C132.794 29.3927 133.349 29.2808 133.984 29.2808C134.646 29.2808 135.224 29.4162 135.719 29.687C136.214 29.9526 136.602 30.3172 136.883 30.7808C137.169 31.2391 137.326 31.7599 137.352 32.3433H135.977C135.951 31.9943 135.852 31.6792 135.68 31.3979C135.513 31.1167 135.284 30.8927 134.992 30.7261C134.706 30.5542 134.37 30.4683 133.984 30.4683C133.542 30.4683 133.169 30.5568 132.867 30.7339C132.57 30.9058 132.333 31.1401 132.156 31.437C131.984 31.7287 131.859 32.0542 131.781 32.4136C131.708 32.7677 131.672 33.1297 131.672 33.4995V33.8276C131.672 34.1974 131.708 34.562 131.781 34.9214C131.854 35.2808 131.977 35.6063 132.148 35.8979C132.326 36.1896 132.562 36.424 132.859 36.6011C133.161 36.7729 133.536 36.8589 133.984 36.8589ZM143.641 26.5151H145.102L148.828 35.7886L152.547 26.5151H154.016L149.391 37.8901H148.25L143.641 26.5151ZM143.164 26.5151H144.453L144.664 33.4526V37.8901H143.164V26.5151ZM153.195 26.5151H154.484V37.8901H152.984V33.4526L153.195 26.5151ZM161.898 36.4448V32.0933C161.898 31.7599 161.831 31.4709 161.695 31.2261C161.565 30.9761 161.367 30.7834 161.102 30.6479C160.836 30.5125 160.508 30.4448 160.117 30.4448C159.753 30.4448 159.432 30.5073 159.156 30.6323C158.885 30.7573 158.672 30.9214 158.516 31.1245C158.365 31.3276 158.289 31.5464 158.289 31.7808H156.844C156.844 31.4787 156.922 31.1792 157.078 30.8823C157.234 30.5854 157.458 30.3172 157.75 30.0776C158.047 29.8328 158.401 29.6401 158.812 29.4995C159.229 29.3537 159.693 29.2808 160.203 29.2808C160.818 29.2808 161.359 29.3849 161.828 29.5933C162.302 29.8016 162.672 30.1167 162.938 30.5386C163.208 30.9552 163.344 31.4787 163.344 32.1089V36.0464C163.344 36.3276 163.367 36.6271 163.414 36.9448C163.466 37.2625 163.542 37.536 163.641 37.7651V37.8901H162.133C162.06 37.7235 162.003 37.5021 161.961 37.2261C161.919 36.9448 161.898 36.6844 161.898 36.4448ZM162.148 32.7651L162.164 33.7808H160.703C160.292 33.7808 159.924 33.8146 159.602 33.8823C159.279 33.9448 159.008 34.0412 158.789 34.1714C158.57 34.3016 158.404 34.4657 158.289 34.6636C158.174 34.8563 158.117 35.0828 158.117 35.3433C158.117 35.6089 158.177 35.8511 158.297 36.0698C158.417 36.2886 158.596 36.4631 158.836 36.5933C159.081 36.7183 159.38 36.7808 159.734 36.7808C160.177 36.7808 160.568 36.687 160.906 36.4995C161.245 36.312 161.513 36.0828 161.711 35.812C161.914 35.5412 162.023 35.2782 162.039 35.0229L162.656 35.7183C162.62 35.937 162.521 36.1792 162.359 36.4448C162.198 36.7104 161.982 36.9657 161.711 37.2104C161.445 37.45 161.128 37.6506 160.758 37.812C160.393 37.9683 159.982 38.0464 159.523 38.0464C158.951 38.0464 158.448 37.9344 158.016 37.7104C157.589 37.4865 157.255 37.187 157.016 36.812C156.781 36.4318 156.664 36.0073 156.664 35.5386C156.664 35.0854 156.753 34.687 156.93 34.3433C157.107 33.9943 157.362 33.7052 157.695 33.4761C158.029 33.2417 158.43 33.0646 158.898 32.9448C159.367 32.825 159.891 32.7651 160.469 32.7651H162.148ZM167.18 35.6011L171.078 29.437H172.531V37.8901H171.078V31.7261L167.18 37.8901H165.742V29.437H167.18V35.6011ZM170.289 26.3745H171.461C171.461 26.7808 171.367 27.1427 171.18 27.4604C170.992 27.7729 170.724 28.0177 170.375 28.1948C170.026 28.3719 169.612 28.4604 169.133 28.4604C168.409 28.4604 167.836 28.2677 167.414 27.8823C166.997 27.4917 166.789 26.9891 166.789 26.3745H167.961C167.961 26.6818 168.049 26.9526 168.227 27.187C168.404 27.4214 168.706 27.5386 169.133 27.5386C169.549 27.5386 169.846 27.4214 170.023 27.187C170.201 26.9526 170.289 26.6818 170.289 26.3745ZM178.234 36.8589C178.578 36.8589 178.896 36.7886 179.188 36.6479C179.479 36.5073 179.719 36.3146 179.906 36.0698C180.094 35.8198 180.201 35.536 180.227 35.2183H181.602C181.576 35.7183 181.406 36.1844 181.094 36.6167C180.786 37.0438 180.383 37.3901 179.883 37.6558C179.383 37.9162 178.833 38.0464 178.234 38.0464C177.599 38.0464 177.044 37.9344 176.57 37.7104C176.102 37.4865 175.711 37.1792 175.398 36.7886C175.091 36.3979 174.859 35.95 174.703 35.4448C174.552 34.9344 174.477 34.3953 174.477 33.8276V33.4995C174.477 32.9318 174.552 32.3953 174.703 31.8901C174.859 31.3797 175.091 30.9292 175.398 30.5386C175.711 30.1479 176.102 29.8407 176.57 29.6167C177.044 29.3927 177.599 29.2808 178.234 29.2808C178.896 29.2808 179.474 29.4162 179.969 29.687C180.464 29.9526 180.852 30.3172 181.133 30.7808C181.419 31.2391 181.576 31.7599 181.602 32.3433H180.227C180.201 31.9943 180.102 31.6792 179.93 31.3979C179.763 31.1167 179.534 30.8927 179.242 30.7261C178.956 30.5542 178.62 30.4683 178.234 30.4683C177.792 30.4683 177.419 30.5568 177.117 30.7339C176.82 30.9058 176.583 31.1401 176.406 31.437C176.234 31.7287 176.109 32.0542 176.031 32.4136C175.958 32.7677 175.922 33.1297 175.922 33.4995V33.8276C175.922 34.1974 175.958 34.562 176.031 34.9214C176.104 35.2808 176.227 35.6063 176.398 35.8979C176.576 36.1896 176.812 36.424 177.109 36.6011C177.411 36.7729 177.786 36.8589 178.234 36.8589ZM186.672 29.437V37.8901H185.219V29.437H186.672ZM189.508 29.437V30.6089H182.438V29.437H189.508ZM193.812 38.0464C193.224 38.0464 192.69 37.9474 192.211 37.7495C191.737 37.5464 191.328 37.2625 190.984 36.8979C190.646 36.5334 190.385 36.1011 190.203 35.6011C190.021 35.1011 189.93 34.5542 189.93 33.9604V33.6323C189.93 32.9448 190.031 32.3328 190.234 31.7964C190.438 31.2547 190.714 30.7964 191.062 30.4214C191.411 30.0464 191.807 29.7625 192.25 29.5698C192.693 29.3771 193.151 29.2808 193.625 29.2808C194.229 29.2808 194.75 29.3849 195.188 29.5933C195.63 29.8016 195.992 30.0933 196.273 30.4683C196.555 30.8381 196.763 31.2756 196.898 31.7808C197.034 32.2808 197.102 32.8276 197.102 33.4214V34.0698H190.789V32.8901H195.656V32.7808C195.635 32.4058 195.557 32.0412 195.422 31.687C195.292 31.3328 195.083 31.0412 194.797 30.812C194.51 30.5828 194.12 30.4683 193.625 30.4683C193.297 30.4683 192.995 30.5386 192.719 30.6792C192.443 30.8146 192.206 31.0177 192.008 31.2886C191.81 31.5594 191.656 31.8901 191.547 32.2808C191.438 32.6714 191.383 33.1219 191.383 33.6323V33.9604C191.383 34.3615 191.438 34.7391 191.547 35.0933C191.661 35.4422 191.826 35.7495 192.039 36.0151C192.258 36.2808 192.521 36.4891 192.828 36.6401C193.141 36.7912 193.495 36.8667 193.891 36.8667C194.401 36.8667 194.833 36.7625 195.188 36.5542C195.542 36.3459 195.852 36.0672 196.117 35.7183L196.992 36.4136C196.81 36.6896 196.578 36.9526 196.297 37.2026C196.016 37.4526 195.669 37.6558 195.258 37.812C194.852 37.9683 194.37 38.0464 193.812 38.0464ZM200.234 31.062V41.1401H198.781V29.437H200.109L200.234 31.062ZM205.93 33.5933V33.7573C205.93 34.3719 205.857 34.9422 205.711 35.4683C205.565 35.9891 205.352 36.4422 205.07 36.8276C204.794 37.2131 204.453 37.5125 204.047 37.7261C203.641 37.9396 203.174 38.0464 202.648 38.0464C202.112 38.0464 201.638 37.9578 201.227 37.7808C200.815 37.6037 200.466 37.3459 200.18 37.0073C199.893 36.6688 199.664 36.2625 199.492 35.7886C199.326 35.3146 199.211 34.7808 199.148 34.187V33.312C199.211 32.687 199.328 32.1271 199.5 31.6323C199.672 31.1375 199.898 30.7157 200.18 30.3667C200.466 30.0125 200.812 29.7443 201.219 29.562C201.625 29.3745 202.094 29.2808 202.625 29.2808C203.156 29.2808 203.628 29.3849 204.039 29.5933C204.451 29.7964 204.797 30.0881 205.078 30.4683C205.359 30.8485 205.57 31.3042 205.711 31.8354C205.857 32.3615 205.93 32.9474 205.93 33.5933ZM204.477 33.7573V33.5933C204.477 33.1714 204.432 32.7756 204.344 32.4058C204.255 32.0308 204.117 31.7026 203.93 31.4214C203.747 31.1349 203.513 30.911 203.227 30.7495C202.94 30.5828 202.599 30.4995 202.203 30.4995C201.839 30.4995 201.521 30.562 201.25 30.687C200.984 30.812 200.758 30.9813 200.57 31.1948C200.383 31.4032 200.229 31.6427 200.109 31.9136C199.995 32.1792 199.909 32.4552 199.852 32.7417V34.7651C199.956 35.1297 200.102 35.4735 200.289 35.7964C200.477 36.1141 200.727 36.3719 201.039 36.5698C201.352 36.7625 201.745 36.8589 202.219 36.8589C202.609 36.8589 202.945 36.7782 203.227 36.6167C203.513 36.45 203.747 36.2235 203.93 35.937C204.117 35.6506 204.255 35.3224 204.344 34.9526C204.432 34.5776 204.477 34.1792 204.477 33.7573Z" fill="#3B6D9A"/>
</g>
<defs>
<clipPath id="clip0_4_204">
<rect width="36" height="36" fill="white" transform="translate(24.5 14.3901)"/>
</clipPath>
<clipPath id="clip1_4_204">
<rect width="36" height="36" fill="white" transform="translate(24.5 14.3901)"/>
</clipPath>
<clipPath id="clip2_4_204">
<rect width="36" height="36" fill="white" transform="translate(24.5 14.3901)"/>
</clipPath>
<clipPath id="clip3_4_204">
<rect width="122.11" height="19" fill="white" transform="translate(84.5 22.8901)"/>
</clipPath>
</defs>
</svg>
