<svg width="56" height="57" viewBox="0 0 56 57" fill="none" xmlns="http://www.w3.org/2000/svg">
<g clip-path="url(#clip0_4_1211)">
<path d="M33.9998 14.1899C31.6798 14.1899 29.4532 15.2699 27.9998 16.9766C26.5465 15.2699 24.3198 14.1899 21.9998 14.1899C17.8932 14.1899 14.6665 17.4166 14.6665 21.5233C14.6665 26.5633 19.1998 30.6699 26.0665 36.9099L26.2053 37.0354C27.2236 37.9553 28.7736 37.9523 29.7882 37.0286L29.9332 36.8966C36.7998 30.6699 41.3332 26.5633 41.3332 21.5233C41.3332 17.4166 38.1065 14.1899 33.9998 14.1899ZM28.1332 34.9233L27.9998 35.0566L27.8665 34.9233C21.5198 29.1766 17.3332 25.3766 17.3332 21.5233C17.3332 18.8566 19.3332 16.8566 21.9998 16.8566C24.0532 16.8566 26.0532 18.1766 26.7598 20.0033H29.2532C29.9465 18.1766 31.9465 16.8566 33.9998 16.8566C36.6665 16.8566 38.6665 18.8566 38.6665 21.5233C38.6665 25.3766 34.4798 29.1766 28.1332 34.9233Z" fill="white"/>
</g>
<defs>
<clipPath id="clip0_4_1211">
<rect x="12" y="10.1899" width="32" height="32" rx="16" fill="white"/>
</clipPath>
</defs>
</svg>
