<svg width="56" height="57" viewBox="0 0 56 57" fill="none" xmlns="http://www.w3.org/2000/svg">
<g clip-path="url(#clip0_4_1206)">
<path d="M24.356 15.5231C24.916 13.9231 26.4226 12.8564 28.116 12.8564C29.8093 12.8564 31.316 13.9231 31.8893 15.5231H38.7826C39.519 15.5231 40.116 16.1201 40.116 16.8564C40.116 17.5928 39.519 18.1898 38.7826 18.1898H37.516L41.4493 27.5231C42.196 30.1898 40.116 31.5231 36.7826 31.5231C33.4493 31.5231 31.4893 30.1898 32.116 27.5231L36.0493 18.1898H31.876C31.4493 19.3231 30.5826 20.1898 29.4493 20.6164C29.4493 20.6164 28.5205 20.8538 27.9998 20.8564C27.4792 20.859 26.7826 20.6298 26.7826 20.6298C25.6493 20.1898 24.7826 19.3231 24.3426 18.1898H20.1826L24.116 27.5231C24.8626 30.1898 22.7826 31.5231 19.4493 31.5231C16.116 31.5231 14.156 30.1898 14.7826 27.5231L18.716 18.1898H17.4493C16.7129 18.1898 16.116 17.5928 16.116 16.8564C16.116 16.1201 16.7129 15.5231 17.4493 15.5231H24.356ZM29.0588 15.9136C28.8088 15.6636 28.4696 15.5231 28.116 15.5231C27.7624 15.5231 27.4232 15.6636 27.1732 15.9136C26.923 16.1637 26.7826 16.5028 26.7826 16.8564C26.7826 17.2101 26.923 17.5492 27.1732 17.7993C27.4232 18.0493 27.7624 18.1898 28.116 18.1898C28.4696 18.1898 28.8088 18.0493 29.0588 17.7993C29.3088 17.5492 29.4493 17.2101 29.4493 16.8564C29.4493 16.5028 29.3088 16.1637 29.0588 15.9136ZM21.4493 27.5231L19.4493 22.5231L17.4493 27.5231H21.4493ZM38.7826 27.5231L36.7826 22.5231L34.7826 27.5231H38.7826Z" fill="white"/>
<path d="M17.4495 35.5234C16.7132 35.5234 16.1162 36.1204 16.1162 36.8568C16.1162 37.5932 16.7132 38.1901 17.4495 38.1901H38.7829C39.5193 38.1901 40.1162 37.5932 40.1162 36.8568C40.1162 36.1204 39.5193 35.5234 38.7829 35.5234H17.4495Z" fill="white"/>
</g>
<defs>
<clipPath id="clip0_4_1206">
<rect x="12" y="10.1899" width="32" height="32" rx="16" fill="white"/>
</clipPath>
</defs>
</svg>
