<svg width="122" height="38" viewBox="0 0 122 38" fill="none" xmlns="http://www.w3.org/2000/svg">
<g clip-path="url(#clip0_4_1136)">
<g clip-path="url(#clip1_4_1136)">
<g clip-path="url(#clip2_4_1136)">
<path d="M0 16.5001C0 7.42557 7.42459 0.000976562 16.4991 0.000976562H105.411C114.485 0.000976562 121.91 7.42557 121.91 16.5001C121.91 25.5746 114.485 32.9992 105.411 32.9992H0V16.5001Z" fill="#FF680A"/>
<path d="M48.9473 11.917H54.7219V23.7414H57.3801V11.917H63.1548V9.62549H48.9473V11.917Z" fill="white"/>
<path d="M28.1403 21.358H27.0403V9.53369H24.2905V21.358H15.766V9.53369H13.0161V22.3663C13.0161 23.0996 13.6577 23.7412 14.391 23.7412H26.9487V25.8495H29.5152V22.8246C29.5152 22.8246 29.5152 22.8246 29.5152 22.733C29.5152 22.733 29.5152 22.733 29.5152 22.6413C29.4235 21.908 28.7819 21.358 28.1403 21.358Z" fill="white"/>
<path d="M45.2812 9.62535C45.2812 9.62535 44.3646 9.44203 43.6313 10.267L34.7401 19.3415V9.53369H31.9902V22.6413C31.9902 23.3746 32.8152 24.0162 33.3652 24.0162C33.9151 24.0162 34.0068 23.9246 34.2818 23.6496C34.3734 23.6496 34.3734 23.5579 34.4651 23.4663L43.9979 13.8418V23.6496H46.7478V10.9086C46.6561 10.1753 46.0145 9.62535 45.2812 9.62535Z" fill="white"/>
<path d="M105.411 19.1581C105.228 19.5248 104.953 19.8914 104.678 20.1664C104.22 20.6247 103.761 20.9913 103.211 21.1747C102.661 21.4497 102.111 21.5413 101.378 21.5413C100.736 21.5413 100.095 21.4497 99.5448 21.1747C98.9948 20.8997 98.5365 20.6247 98.0782 20.1664C97.6199 19.7081 97.2532 19.1581 97.0699 18.6081C96.7949 18.0582 96.7032 17.4165 96.7949 16.5916C96.7949 15.8583 96.8866 15.2167 97.1616 14.6667C97.3449 14.1167 97.7115 13.5668 98.1698 13.1084C98.6281 12.6501 99.0864 12.2835 99.6364 12.1002C100.186 11.8252 100.736 11.7335 101.47 11.7335C102.111 11.7335 102.753 11.8252 103.303 12.1002C103.853 12.3751 104.311 12.6501 104.769 13.1084L106.878 11.4585V11.3669C106.144 10.6336 105.411 10.0836 104.494 9.71696C103.578 9.35032 102.661 9.16699 101.561 9.16699C100.553 9.16699 99.5448 9.35032 98.6281 9.71696C97.7115 10.0836 96.9782 10.6336 96.2449 11.3669C95.5116 12.1002 95.0533 12.8335 94.6867 13.7501C94.32 14.6667 94.1367 15.5833 94.1367 16.6832C94.1367 17.7832 94.32 18.6998 94.6867 19.6164C95.0533 20.533 95.6033 21.358 96.2449 22.0913C96.9782 22.8246 97.7115 23.3745 98.6281 23.7412C99.5448 24.1078 100.461 24.2912 101.561 24.2912C102.57 24.2912 103.578 24.1078 104.494 23.7412C105.411 23.3745 106.144 22.8246 106.878 22.0913C107.244 21.7246 107.519 21.358 107.794 20.9913L105.411 19.1581Z" fill="white"/>
<path d="M91.1121 9.53369L87.5372 17.2333L83.0458 9.53369H80.021L86.1623 19.9831C85.6124 20.9914 84.6041 21.633 83.4125 21.633C82.6792 21.633 82.0376 21.4497 81.3959 21.2664V23.7412C81.9459 24.0162 82.7708 24.1079 83.8708 24.1079C85.8873 24.1079 87.6289 22.8246 88.8205 20.2581L94.0452 9.62535H91.1121V9.53369Z" fill="white"/>
<path d="M73.0543 9.53369H66.913C66.1797 9.53369 65.5381 10.1753 65.5381 10.9086V23.7412H68.2879V19.2498H72.9627C74.7959 19.2498 76.1708 18.7915 77.1791 17.8749C78.1874 16.9583 78.7374 15.7667 78.7374 14.3001C78.7374 12.8335 78.1874 11.7336 77.1791 10.817C76.2625 9.992 74.7959 9.53369 73.0543 9.53369ZM72.7794 16.8666H68.2879V11.9169H72.7794C74.8876 11.9169 76.0792 12.8335 76.0792 14.3918C76.0792 15.95 74.8876 16.8666 72.7794 16.8666Z" fill="white"/>
</g>
</g>
</g>
<defs>
<clipPath id="clip0_4_1136">
<rect width="121.91" height="33" fill="white"/>
</clipPath>
<clipPath id="clip1_4_1136">
<rect width="121.91" height="33" fill="white"/>
</clipPath>
<clipPath id="clip2_4_1136">
<rect width="121.91" height="32.9982" fill="white" transform="translate(0 0.000976562)"/>
</clipPath>
</defs>
</svg>
