<svg width="255" height="65" viewBox="0 0 255 65" fill="none" xmlns="http://www.w3.org/2000/svg">
<rect y="0.390137" width="254.5" height="64" rx="10" fill="#173C61" fill-opacity="0.06"/>
<g clip-path="url(#clip0_4_212)">
<g clip-path="url(#clip1_4_212)">
<path fill-rule="evenodd" clip-rule="evenodd" d="M30 17.3901C27.2386 17.3901 25 19.6287 25 22.3901V42.3901C25 45.1515 27.2386 47.3901 30 47.3901H54C56.7614 47.3901 59 45.1515 59 42.3901V22.3901C59 19.6287 56.7614 17.3901 54 17.3901H30ZM29.8571 19.3901C28.2792 19.3901 27 20.6693 27 22.2473C27 22.8785 27.5117 23.3901 28.1429 23.3901H55.8571C56.4883 23.3901 57 22.8785 57 22.2473C57 20.6693 55.7208 19.3901 54.1429 19.3901H29.8571Z" fill="#9BB5CC"/>
<path d="M28 30.3901C28 27.6287 30.2386 25.3901 33 25.3901H51C53.7614 25.3901 56 27.6287 56 30.3901V40.3901C56 43.1515 53.7614 45.3901 51 45.3901H33C30.2386 45.3901 28 43.1515 28 40.3901V30.3901Z" fill="#FF9550"/>
<path fill-rule="evenodd" clip-rule="evenodd" d="M51 26.3901H33C30.7909 26.3901 29 28.181 29 30.3901V40.3901C29 42.5992 30.7909 44.3901 33 44.3901H51C53.2091 44.3901 55 42.5992 55 40.3901V30.3901C55 28.181 53.2091 26.3901 51 26.3901ZM33 25.3901C30.2386 25.3901 28 27.6287 28 30.3901V40.3901C28 43.1515 30.2386 45.3901 33 45.3901H51C53.7614 45.3901 56 43.1515 56 40.3901V30.3901C56 27.6287 53.7614 25.3901 51 25.3901H33Z" fill="white"/>
<path d="M50 42.3901C51.6569 42.3901 53 41.047 53 39.3901C53 37.7333 51.6569 36.3901 50 36.3901C48.3431 36.3901 47 37.7333 47 39.3901C47 41.047 48.3431 42.3901 50 42.3901Z" fill="white"/>
<path d="M49.1428 39.39C49.1428 39.1533 48.9509 38.9614 48.7142 38.9614C48.4775 38.9614 48.2856 39.1533 48.2856 39.39C48.2856 39.6267 48.4775 39.8186 48.7142 39.8186C48.9509 39.8186 49.1428 39.6267 49.1428 39.39Z" fill="#9BB5CC"/>
<path d="M51.714 39.39C51.714 39.1533 51.5221 38.9614 51.2854 38.9614C51.0488 38.9614 50.8569 39.1533 50.8569 39.39C50.8569 39.6267 51.0488 39.8186 51.2854 39.8186C51.5221 39.8186 51.714 39.6267 51.714 39.39Z" fill="#9BB5CC"/>
<path d="M50 34.3901C51.6569 34.3901 53 33.047 53 31.3901C53 29.7333 51.6569 28.3901 50 28.3901C48.3431 28.3901 47 29.7333 47 31.3901C47 33.047 48.3431 34.3901 50 34.3901Z" fill="white"/>
<path d="M49.1428 31.39C49.1428 31.1533 48.9509 30.9614 48.7142 30.9614C48.4775 30.9614 48.2856 31.1533 48.2856 31.39C48.2856 31.6267 48.4775 31.8186 48.7142 31.8186C48.9509 31.8186 49.1428 31.6267 49.1428 31.39Z" fill="#9BB5CC"/>
<path d="M51.714 31.39C51.714 31.1533 51.5221 30.9614 51.2854 30.9614C51.0488 30.9614 50.8569 31.1533 50.8569 31.39C50.8569 31.6267 51.0488 31.8186 51.2854 31.8186C51.5221 31.8186 51.714 31.6267 51.714 31.39Z" fill="#9BB5CC"/>
<path d="M31 30.3901C31 29.2855 31.8954 28.3901 33 28.3901H42C43.1046 28.3901 44 29.2855 44 30.3901V34.3901C44 35.4947 43.1046 36.3901 42 36.3901H33C31.8954 36.3901 31 35.4947 31 34.3901V30.3901Z" fill="white"/>
<path d="M33 38.8901C33 38.614 33.2239 38.3901 33.5 38.3901H35.5C35.7761 38.3901 36 38.614 36 38.8901C36 39.1662 35.7761 39.3901 35.5 39.3901H33.5C33.2239 39.3901 33 39.1662 33 38.8901Z" fill="white"/>
<path d="M33 40.8901C33 40.614 33.2239 40.3901 33.5 40.3901H35.5C35.7761 40.3901 36 40.614 36 40.8901C36 41.1662 35.7761 41.3901 35.5 41.3901H33.5C33.2239 41.3901 33 41.1662 33 40.8901Z" fill="white"/>
<path d="M39 38.8901C39 38.614 39.2239 38.3901 39.5 38.3901H41.5C41.7761 38.3901 42 38.614 42 38.8901C42 39.1662 41.7761 39.3901 41.5 39.3901H39.5C39.2239 39.3901 39 39.1662 39 38.8901Z" fill="white"/>
<path d="M39 40.8901C39 40.614 39.2239 40.3901 39.5 40.3901H41.5C41.7761 40.3901 42 40.614 42 40.8901C42 41.1662 41.7761 41.3901 41.5 41.3901H39.5C39.2239 41.3901 39 41.1662 39 40.8901Z" fill="white"/>
<path fill-rule="evenodd" clip-rule="evenodd" d="M34.8159 31.2174C34.8159 30.7605 35.1863 30.3901 35.6432 30.3901C36.1001 30.3901 36.4705 30.7605 36.4705 31.2174V33.6388C36.4705 34.0957 36.1001 34.4661 35.6432 34.4661C35.1863 34.4661 34.8159 34.0957 34.8159 33.6388V31.2174ZM35.6432 30.834C35.4315 30.834 35.2598 31.0057 35.2598 31.2174V33.6388C35.2598 33.8506 35.4315 34.0222 35.6432 34.0222C35.8549 34.0222 36.0266 33.8506 36.0266 33.6388V31.2174C36.0266 31.0057 35.8549 30.834 35.6432 30.834Z" fill="#57AE00"/>
<path d="M34.0493 30.7132C34.0493 30.6153 33.9853 30.5291 33.8917 30.5007C33.798 30.4724 33.6969 30.5086 33.6427 30.59L33.0373 31.4981C32.9693 31.6001 32.9969 31.7379 33.0989 31.8059C33.2009 31.8739 33.3387 31.8463 33.4067 31.7443L33.6054 31.4462V33.9215H33.3229C33.2003 33.9215 33.1009 34.0209 33.1009 34.1435C33.1009 34.2661 33.2003 34.3654 33.3229 34.3654H34.3318C34.4544 34.3654 34.5538 34.2661 34.5538 34.1435C34.5538 34.0209 34.4544 33.9215 34.3318 33.9215H34.0493V30.7132Z" fill="#57AE00"/>
<path d="M39.5027 34.2441C39.4568 34.2441 39.411 34.2305 39.371 34.2019C39.2689 34.1288 39.2453 33.9871 39.3184 33.885L41.5884 30.707C41.6615 30.6048 41.8031 30.5812 41.9053 30.6543C42.0074 30.727 42.0306 30.8691 41.9579 30.9708L39.6879 34.1488C39.643 34.211 39.5735 34.2441 39.5027 34.2441Z" fill="#57AE00"/>
<path fill-rule="evenodd" clip-rule="evenodd" d="M39.2754 31.2933C39.2754 31.6687 39.5809 31.9743 39.9564 31.9743C40.3319 31.9743 40.6374 31.6687 40.6374 31.2933C40.6374 30.9178 40.3319 30.6123 39.9564 30.6123C39.5809 30.6123 39.2754 30.9178 39.2754 31.2933ZM39.7294 31.2933C39.7294 31.168 39.8311 31.0663 39.9564 31.0663C40.0817 31.0663 40.1834 31.168 40.1834 31.2933C40.1834 31.4186 40.0817 31.5203 39.9564 31.5203C39.8311 31.5203 39.7294 31.4186 39.7294 31.2933Z" fill="#57AE00"/>
<path fill-rule="evenodd" clip-rule="evenodd" d="M40.6372 33.5633C40.6372 33.9388 40.9427 34.2443 41.3182 34.2443C41.6936 34.2443 41.9992 33.9388 41.9992 33.5633C41.9992 33.1879 41.6936 32.8823 41.3182 32.8823C40.9427 32.8823 40.6372 33.1879 40.6372 33.5633ZM41.0912 33.5633C41.0912 33.4385 41.1933 33.3363 41.3182 33.3363C41.443 33.3363 41.5452 33.4385 41.5452 33.5633C41.5452 33.6882 41.443 33.7903 41.3182 33.7903C41.1933 33.7903 41.0912 33.6882 41.0912 33.5633Z" fill="#57AE00"/>
<path fill-rule="evenodd" clip-rule="evenodd" d="M37.6613 30.3901C37.2044 30.3901 36.834 30.7605 36.834 31.2174V33.6388C36.834 34.0957 37.2044 34.4661 37.6613 34.4661C38.1182 34.4661 38.4886 34.0957 38.4886 33.6388V31.2174C38.4886 30.7605 38.1182 30.3901 37.6613 30.3901ZM37.2779 31.2174C37.2779 31.0057 37.4496 30.834 37.6613 30.834C37.8731 30.834 38.0447 31.0057 38.0447 31.2174V33.6388C38.0447 33.8506 37.8731 34.0222 37.6613 34.0222C37.4496 34.0222 37.2779 33.8506 37.2779 33.6388V31.2174Z" fill="#57AE00"/>
</g>
</g>
<path d="M92.75 21.9058V23.1323H86.5938V21.9058H92.75ZM86.8281 17.0151V28.3901H85.3203V17.0151H86.8281ZM94.0625 17.0151V28.3901H92.5625V17.0151H94.0625ZM100.031 28.5464C99.4427 28.5464 98.9089 28.4474 98.4297 28.2495C97.9557 28.0464 97.5469 27.7625 97.2031 27.3979C96.8646 27.0334 96.6042 26.6011 96.4219 26.1011C96.2396 25.6011 96.1484 25.0542 96.1484 24.4604V24.1323C96.1484 23.4448 96.25 22.8328 96.4531 22.2964C96.6562 21.7547 96.9323 21.2964 97.2812 20.9214C97.6302 20.5464 98.026 20.2625 98.4688 20.0698C98.9115 19.8771 99.3698 19.7808 99.8438 19.7808C100.448 19.7808 100.969 19.8849 101.406 20.0933C101.849 20.3016 102.211 20.5933 102.492 20.9683C102.773 21.3381 102.982 21.7756 103.117 22.2808C103.253 22.7808 103.32 23.3276 103.32 23.9214V24.5698H97.0078V23.3901H101.875V23.2808C101.854 22.9058 101.776 22.5412 101.641 22.187C101.51 21.8328 101.302 21.5412 101.016 21.312C100.729 21.0828 100.339 20.9683 99.8438 20.9683C99.5156 20.9683 99.2135 21.0386 98.9375 21.1792C98.6615 21.3146 98.4245 21.5177 98.2266 21.7886C98.0286 22.0594 97.875 22.3901 97.7656 22.7808C97.6562 23.1714 97.6016 23.6219 97.6016 24.1323V24.4604C97.6016 24.8615 97.6562 25.2391 97.7656 25.5933C97.8802 25.9422 98.0443 26.2495 98.2578 26.5151C98.4766 26.7808 98.7396 26.9891 99.0469 27.1401C99.3594 27.2912 99.7135 27.3667 100.109 27.3667C100.62 27.3667 101.052 27.2625 101.406 27.0542C101.76 26.8459 102.07 26.5672 102.336 26.2183L103.211 26.9136C103.029 27.1896 102.797 27.4526 102.516 27.7026C102.234 27.9526 101.888 28.1558 101.477 28.312C101.07 28.4683 100.589 28.5464 100.031 28.5464ZM108.164 24.3511H106.609V23.4604H108.047C108.448 23.4604 108.766 23.411 109 23.312C109.234 23.2078 109.401 23.0646 109.5 22.8823C109.599 22.7 109.648 22.4865 109.648 22.2417C109.648 22.0229 109.591 21.8172 109.477 21.6245C109.367 21.4266 109.19 21.2677 108.945 21.1479C108.701 21.0229 108.372 20.9604 107.961 20.9604C107.628 20.9604 107.326 21.0203 107.055 21.1401C106.784 21.2547 106.568 21.4136 106.406 21.6167C106.25 21.8146 106.172 22.0386 106.172 22.2886H104.727C104.727 21.7729 104.872 21.3302 105.164 20.9604C105.461 20.5854 105.854 20.2964 106.344 20.0933C106.839 19.8901 107.378 19.7886 107.961 19.7886C108.451 19.7886 108.888 19.8433 109.273 19.9526C109.664 20.0568 109.995 20.2131 110.266 20.4214C110.536 20.6245 110.742 20.8797 110.883 21.187C111.029 21.4891 111.102 21.8407 111.102 22.2417C111.102 22.5282 111.034 22.799 110.898 23.0542C110.763 23.3094 110.568 23.536 110.312 23.7339C110.057 23.9266 109.747 24.0776 109.383 24.187C109.023 24.2964 108.617 24.3511 108.164 24.3511ZM106.609 23.8042H108.164C108.669 23.8042 109.115 23.8537 109.5 23.9526C109.885 24.0464 110.208 24.187 110.469 24.3745C110.729 24.562 110.924 24.7938 111.055 25.0698C111.19 25.3407 111.258 25.6532 111.258 26.0073C111.258 26.4032 111.177 26.7599 111.016 27.0776C110.859 27.3901 110.635 27.6558 110.344 27.8745C110.052 28.0933 109.703 28.2599 109.297 28.3745C108.896 28.4891 108.451 28.5464 107.961 28.5464C107.414 28.5464 106.883 28.4526 106.367 28.2651C105.852 28.0776 105.427 27.7886 105.094 27.3979C104.76 27.0021 104.594 26.4995 104.594 25.8901H106.039C106.039 26.1453 106.12 26.3875 106.281 26.6167C106.443 26.8459 106.667 27.0308 106.953 27.1714C107.245 27.312 107.581 27.3823 107.961 27.3823C108.367 27.3823 108.706 27.3198 108.977 27.1948C109.247 27.0698 109.451 26.9032 109.586 26.6948C109.727 26.4865 109.797 26.2599 109.797 26.0151C109.797 25.6974 109.734 25.4422 109.609 25.2495C109.484 25.0568 109.292 24.9162 109.031 24.8276C108.776 24.7339 108.448 24.687 108.047 24.687H106.609V23.8042ZM118.117 26.9448V22.5933C118.117 22.2599 118.049 21.9709 117.914 21.7261C117.784 21.4761 117.586 21.2834 117.32 21.1479C117.055 21.0125 116.727 20.9448 116.336 20.9448C115.971 20.9448 115.651 21.0073 115.375 21.1323C115.104 21.2573 114.891 21.4214 114.734 21.6245C114.583 21.8276 114.508 22.0464 114.508 22.2808H113.062C113.062 21.9787 113.141 21.6792 113.297 21.3823C113.453 21.0854 113.677 20.8172 113.969 20.5776C114.266 20.3328 114.62 20.1401 115.031 19.9995C115.448 19.8537 115.911 19.7808 116.422 19.7808C117.036 19.7808 117.578 19.8849 118.047 20.0933C118.521 20.3016 118.891 20.6167 119.156 21.0386C119.427 21.4552 119.562 21.9787 119.562 22.6089V26.5464C119.562 26.8276 119.586 27.1271 119.633 27.4448C119.685 27.7625 119.76 28.036 119.859 28.2651V28.3901H118.352C118.279 28.2235 118.221 28.0021 118.18 27.7261C118.138 27.4448 118.117 27.1844 118.117 26.9448ZM118.367 23.2651L118.383 24.2808H116.922C116.51 24.2808 116.143 24.3146 115.82 24.3823C115.497 24.4448 115.227 24.5412 115.008 24.6714C114.789 24.8016 114.622 24.9657 114.508 25.1636C114.393 25.3563 114.336 25.5828 114.336 25.8433C114.336 26.1089 114.396 26.3511 114.516 26.5698C114.635 26.7886 114.815 26.9631 115.055 27.0933C115.299 27.2183 115.599 27.2808 115.953 27.2808C116.396 27.2808 116.786 27.187 117.125 26.9995C117.464 26.812 117.732 26.5828 117.93 26.312C118.133 26.0412 118.242 25.7782 118.258 25.5229L118.875 26.2183C118.839 26.437 118.74 26.6792 118.578 26.9448C118.417 27.2104 118.201 27.4657 117.93 27.7104C117.664 27.95 117.346 28.1506 116.977 28.312C116.612 28.4683 116.201 28.5464 115.742 28.5464C115.169 28.5464 114.667 28.4344 114.234 28.2104C113.807 27.9865 113.474 27.687 113.234 27.312C113 26.9318 112.883 26.5073 112.883 26.0386C112.883 25.5854 112.971 25.187 113.148 24.8433C113.326 24.4943 113.581 24.2052 113.914 23.9761C114.247 23.7417 114.648 23.5646 115.117 23.4448C115.586 23.325 116.109 23.2651 116.688 23.2651H118.367ZM127.484 19.937V21.1323H123.398V19.937H127.484ZM128.758 19.937V28.3901H127.312V19.937H128.758ZM123.047 19.937H124.5L124.281 24.0151C124.245 24.6453 124.185 25.2026 124.102 25.687C124.023 26.1662 123.914 26.5776 123.773 26.9214C123.638 27.2651 123.466 27.5464 123.258 27.7651C123.055 27.9787 122.81 28.1375 122.523 28.2417C122.237 28.3407 121.906 28.3901 121.531 28.3901H121.078V27.1167L121.391 27.0933C121.615 27.0776 121.805 27.0256 121.961 26.937C122.122 26.8485 122.258 26.7183 122.367 26.5464C122.477 26.3693 122.565 26.1427 122.633 25.8667C122.706 25.5907 122.76 25.2625 122.797 24.8823C122.839 24.5021 122.87 24.0594 122.891 23.5542L123.047 19.937ZM134.594 28.5464C134.005 28.5464 133.471 28.4474 132.992 28.2495C132.518 28.0464 132.109 27.7625 131.766 27.3979C131.427 27.0334 131.167 26.6011 130.984 26.1011C130.802 25.6011 130.711 25.0542 130.711 24.4604V24.1323C130.711 23.4448 130.812 22.8328 131.016 22.2964C131.219 21.7547 131.495 21.2964 131.844 20.9214C132.193 20.5464 132.589 20.2625 133.031 20.0698C133.474 19.8771 133.932 19.7808 134.406 19.7808C135.01 19.7808 135.531 19.8849 135.969 20.0933C136.411 20.3016 136.773 20.5933 137.055 20.9683C137.336 21.3381 137.544 21.7756 137.68 22.2808C137.815 22.7808 137.883 23.3276 137.883 23.9214V24.5698H131.57V23.3901H136.438V23.2808C136.417 22.9058 136.339 22.5412 136.203 22.187C136.073 21.8328 135.865 21.5412 135.578 21.312C135.292 21.0828 134.901 20.9683 134.406 20.9683C134.078 20.9683 133.776 21.0386 133.5 21.1792C133.224 21.3146 132.987 21.5177 132.789 21.7886C132.591 22.0594 132.438 22.3901 132.328 22.7808C132.219 23.1714 132.164 23.6219 132.164 24.1323V24.4604C132.164 24.8615 132.219 25.2391 132.328 25.5933C132.443 25.9422 132.607 26.2495 132.82 26.5151C133.039 26.7808 133.302 26.9891 133.609 27.1401C133.922 27.2912 134.276 27.3667 134.672 27.3667C135.182 27.3667 135.615 27.2625 135.969 27.0542C136.323 26.8459 136.633 26.5672 136.898 26.2183L137.773 26.9136C137.591 27.1896 137.359 27.4526 137.078 27.7026C136.797 27.9526 136.451 28.1558 136.039 28.312C135.633 28.4683 135.151 28.5464 134.594 28.5464ZM142.133 24.7104L138.93 19.937H140.672L142.859 23.437H144.547L144.336 24.7104H142.133ZM142.922 24.562L140.469 28.3901H138.641L142.008 23.5151L142.922 24.562ZM145.289 19.937V28.3901H143.844V19.937H145.289ZM150.219 19.937L147.016 24.7104H144.812L144.586 23.437H146.281L148.469 19.937H150.219ZM148.672 28.3901L146.211 24.562L147.141 23.5151L150.5 28.3901H148.672ZM157.57 23.6011V24.7729H153.102V23.6011H157.57ZM153.406 19.937V28.3901H151.961V19.937H153.406ZM158.742 19.937V28.3901H157.289V19.937H158.742ZM162.641 19.937V28.3901H161.188V19.937H162.641ZM161.078 17.6948C161.078 17.4604 161.148 17.2625 161.289 17.1011C161.435 16.9396 161.648 16.8589 161.93 16.8589C162.206 16.8589 162.417 16.9396 162.562 17.1011C162.714 17.2625 162.789 17.4604 162.789 17.6948C162.789 17.9188 162.714 18.1115 162.562 18.2729C162.417 18.4292 162.206 18.5073 161.93 18.5073C161.648 18.5073 161.435 18.4292 161.289 18.2729C161.148 18.1115 161.078 17.9188 161.078 17.6948ZM172.898 24.6714H170.125L170.109 23.5151H172.375C172.823 23.5151 173.195 23.4709 173.492 23.3823C173.794 23.2938 174.021 23.161 174.172 22.9839C174.323 22.8068 174.398 22.5881 174.398 22.3276C174.398 22.1245 174.354 21.9474 174.266 21.7964C174.182 21.6401 174.055 21.5125 173.883 21.4136C173.711 21.3094 173.497 21.2339 173.242 21.187C172.992 21.1349 172.698 21.1089 172.359 21.1089H170.508V28.3901H169.062V19.937H172.359C172.896 19.937 173.378 19.9839 173.805 20.0776C174.237 20.1714 174.604 20.3146 174.906 20.5073C175.214 20.6948 175.448 20.9344 175.609 21.2261C175.771 21.5177 175.852 21.8615 175.852 22.2573C175.852 22.5125 175.799 22.7547 175.695 22.9839C175.591 23.2131 175.438 23.4162 175.234 23.5933C175.031 23.7703 174.781 23.9162 174.484 24.0308C174.188 24.1401 173.846 24.2104 173.461 24.2417L172.898 24.6714ZM172.898 28.3901H169.602L170.32 27.2183H172.898C173.299 27.2183 173.633 27.1688 173.898 27.0698C174.164 26.9657 174.362 26.8198 174.492 26.6323C174.628 26.4396 174.695 26.2104 174.695 25.9448C174.695 25.6792 174.628 25.4526 174.492 25.2651C174.362 25.0724 174.164 24.9266 173.898 24.8276C173.633 24.7235 173.299 24.6714 172.898 24.6714H170.703L170.719 23.5151H173.461L173.984 23.9526C174.448 23.9891 174.841 24.1037 175.164 24.2964C175.487 24.4891 175.732 24.7339 175.898 25.0308C176.065 25.3224 176.148 25.6401 176.148 25.9839C176.148 26.3797 176.073 26.7287 175.922 27.0308C175.776 27.3328 175.562 27.5854 175.281 27.7886C175 27.9865 174.659 28.1375 174.258 28.2417C173.857 28.3407 173.404 28.3901 172.898 28.3901ZM179.656 19.937V28.3901H178.203V19.937H179.656ZM178.094 17.6948C178.094 17.4604 178.164 17.2625 178.305 17.1011C178.451 16.9396 178.664 16.8589 178.945 16.8589C179.221 16.8589 179.432 16.9396 179.578 17.1011C179.729 17.2625 179.805 17.4604 179.805 17.6948C179.805 17.9188 179.729 18.1115 179.578 18.2729C179.432 18.4292 179.221 18.5073 178.945 18.5073C178.664 18.5073 178.451 18.4292 178.305 18.2729C178.164 18.1115 178.094 17.9188 178.094 17.6948ZM183.5 19.937H184.945L184.82 23.1011C184.789 23.9032 184.698 24.5959 184.547 25.1792C184.396 25.7625 184.203 26.2599 183.969 26.6714C183.734 27.0776 183.471 27.4188 183.18 27.6948C182.893 27.9709 182.596 28.2026 182.289 28.3901H181.57L181.609 27.2104L181.906 27.2026C182.078 26.9995 182.245 26.7912 182.406 26.5776C182.568 26.3589 182.716 26.1011 182.852 25.8042C182.987 25.5021 183.099 25.1349 183.188 24.7026C183.281 24.2651 183.341 23.7313 183.367 23.1011L183.5 19.937ZM183.859 19.937H188.945V28.3901H187.5V21.2729H183.859V19.937ZM181.242 27.2026H190.031V30.8823H188.586V28.3901H182.688V30.8823H181.234L181.242 27.2026ZM89.9609 45.4683L92.8359 38.937H94.2266L90.4609 47.3901H89.4609L85.7109 38.937H87.1016L89.9609 45.4683ZM86.6797 38.937V47.3901H85.2344V38.937H86.6797ZM93.1953 47.3901V38.937H94.6484V47.3901H93.1953ZM100.484 47.5464C99.8958 47.5464 99.362 47.4474 98.8828 47.2495C98.4089 47.0464 98 46.7625 97.6562 46.3979C97.3177 46.0334 97.0573 45.6011 96.875 45.1011C96.6927 44.6011 96.6016 44.0542 96.6016 43.4604V43.1323C96.6016 42.4448 96.7031 41.8328 96.9062 41.2964C97.1094 40.7547 97.3854 40.2964 97.7344 39.9214C98.0833 39.5464 98.4792 39.2625 98.9219 39.0698C99.3646 38.8771 99.8229 38.7808 100.297 38.7808C100.901 38.7808 101.422 38.8849 101.859 39.0933C102.302 39.3016 102.664 39.5933 102.945 39.9683C103.227 40.3381 103.435 40.7756 103.57 41.2808C103.706 41.7808 103.773 42.3276 103.773 42.9214V43.5698H97.4609V42.3901H102.328V42.2808C102.307 41.9058 102.229 41.5412 102.094 41.187C101.964 40.8328 101.755 40.5412 101.469 40.312C101.182 40.0828 100.792 39.9683 100.297 39.9683C99.9688 39.9683 99.6667 40.0386 99.3906 40.1792C99.1146 40.3146 98.8776 40.5177 98.6797 40.7886C98.4818 41.0594 98.3281 41.3901 98.2188 41.7808C98.1094 42.1714 98.0547 42.6219 98.0547 43.1323V43.4604C98.0547 43.8615 98.1094 44.2391 98.2188 44.5933C98.3333 44.9422 98.4974 45.2495 98.7109 45.5151C98.9297 45.7808 99.1927 45.9891 99.5 46.1401C99.8125 46.2912 100.167 46.3667 100.562 46.3667C101.073 46.3667 101.505 46.2625 101.859 46.0542C102.214 45.8459 102.523 45.5672 102.789 45.2183L103.664 45.9136C103.482 46.1896 103.25 46.4526 102.969 46.7026C102.688 46.9526 102.341 47.1558 101.93 47.312C101.523 47.4683 101.042 47.5464 100.484 47.5464ZM106.906 40.562V50.6401H105.453V38.937H106.781L106.906 40.562ZM112.602 43.0933V43.2573C112.602 43.8719 112.529 44.4422 112.383 44.9683C112.237 45.4891 112.023 45.9422 111.742 46.3276C111.466 46.7131 111.125 47.0125 110.719 47.2261C110.312 47.4396 109.846 47.5464 109.32 47.5464C108.784 47.5464 108.31 47.4578 107.898 47.2808C107.487 47.1037 107.138 46.8459 106.852 46.5073C106.565 46.1688 106.336 45.7625 106.164 45.2886C105.997 44.8146 105.883 44.2808 105.82 43.687V42.812C105.883 42.187 106 41.6271 106.172 41.1323C106.344 40.6375 106.57 40.2157 106.852 39.8667C107.138 39.5125 107.484 39.2443 107.891 39.062C108.297 38.8745 108.766 38.7808 109.297 38.7808C109.828 38.7808 110.299 38.8849 110.711 39.0933C111.122 39.2964 111.469 39.5881 111.75 39.9683C112.031 40.3485 112.242 40.8042 112.383 41.3354C112.529 41.8615 112.602 42.4474 112.602 43.0933ZM111.148 43.2573V43.0933C111.148 42.6714 111.104 42.2756 111.016 41.9058C110.927 41.5308 110.789 41.2026 110.602 40.9214C110.419 40.6349 110.185 40.411 109.898 40.2495C109.612 40.0828 109.271 39.9995 108.875 39.9995C108.51 39.9995 108.193 40.062 107.922 40.187C107.656 40.312 107.43 40.4813 107.242 40.6948C107.055 40.9032 106.901 41.1427 106.781 41.4136C106.667 41.6792 106.581 41.9552 106.523 42.2417V44.2651C106.628 44.6297 106.773 44.9735 106.961 45.2964C107.148 45.6141 107.398 45.8719 107.711 46.0698C108.023 46.2625 108.417 46.3589 108.891 46.3589C109.281 46.3589 109.617 46.2782 109.898 46.1167C110.185 45.95 110.419 45.7235 110.602 45.437C110.789 45.1506 110.927 44.8224 111.016 44.4526C111.104 44.0776 111.148 43.6792 111.148 43.2573ZM117.953 47.5464C117.365 47.5464 116.831 47.4474 116.352 47.2495C115.878 47.0464 115.469 46.7625 115.125 46.3979C114.786 46.0334 114.526 45.6011 114.344 45.1011C114.161 44.6011 114.07 44.0542 114.07 43.4604V43.1323C114.07 42.4448 114.172 41.8328 114.375 41.2964C114.578 40.7547 114.854 40.2964 115.203 39.9214C115.552 39.5464 115.948 39.2625 116.391 39.0698C116.833 38.8771 117.292 38.7808 117.766 38.7808C118.37 38.7808 118.891 38.8849 119.328 39.0933C119.771 39.3016 120.133 39.5933 120.414 39.9683C120.695 40.3381 120.904 40.7756 121.039 41.2808C121.174 41.7808 121.242 42.3276 121.242 42.9214V43.5698H114.93V42.3901H119.797V42.2808C119.776 41.9058 119.698 41.5412 119.562 41.187C119.432 40.8328 119.224 40.5412 118.938 40.312C118.651 40.0828 118.26 39.9683 117.766 39.9683C117.438 39.9683 117.135 40.0386 116.859 40.1792C116.583 40.3146 116.346 40.5177 116.148 40.7886C115.951 41.0594 115.797 41.3901 115.688 41.7808C115.578 42.1714 115.523 42.6219 115.523 43.1323V43.4604C115.523 43.8615 115.578 44.2391 115.688 44.5933C115.802 44.9422 115.966 45.2495 116.18 45.5151C116.398 45.7808 116.661 45.9891 116.969 46.1401C117.281 46.2912 117.635 46.3667 118.031 46.3667C118.542 46.3667 118.974 46.2625 119.328 46.0542C119.682 45.8459 119.992 45.5672 120.258 45.2183L121.133 45.9136C120.951 46.1896 120.719 46.4526 120.438 46.7026C120.156 46.9526 119.81 47.1558 119.398 47.312C118.992 47.4683 118.51 47.5464 117.953 47.5464ZM125.492 43.7104L122.289 38.937H124.031L126.219 42.437H127.906L127.695 43.7104H125.492ZM126.281 43.562L123.828 47.3901H122L125.367 42.5151L126.281 43.562ZM128.648 38.937V47.3901H127.203V38.937H128.648ZM133.578 38.937L130.375 43.7104H128.172L127.945 42.437H129.641L131.828 38.937H133.578ZM132.031 47.3901L129.57 43.562L130.5 42.5151L133.859 47.3901H132.031ZM136.766 38.937V47.3901H135.312V38.937H136.766ZM135.203 36.6948C135.203 36.4604 135.273 36.2625 135.414 36.1011C135.56 35.9396 135.773 35.8589 136.055 35.8589C136.331 35.8589 136.542 35.9396 136.688 36.1011C136.839 36.2625 136.914 36.4604 136.914 36.6948C136.914 36.9188 136.839 37.1115 136.688 37.2729C136.542 37.4292 136.331 37.5073 136.055 37.5073C135.773 37.5073 135.56 37.4292 135.414 37.2729C135.273 37.1115 135.203 36.9188 135.203 36.6948Z" fill="#3B6D9A"/>
<defs>
<clipPath id="clip0_4_212">
<rect width="36" height="36" fill="white" transform="translate(24 14.3901)"/>
</clipPath>
<clipPath id="clip1_4_212">
<rect width="36" height="36" fill="white" transform="translate(24 14.3901)"/>
</clipPath>
</defs>
</svg>
