<svg width="25" height="25" viewBox="0 0 25 25" fill="none" xmlns="http://www.w3.org/2000/svg">
<path d="M12.2498 14.3901C13.9098 14.3901 15.2498 13.0501 15.2498 11.3901V5.39014C15.2498 3.73014 13.9098 2.39014 12.2498 2.39014C10.5898 2.39014 9.24982 3.73014 9.24982 5.39014V11.3901C9.24982 13.0501 10.5898 14.3901 12.2498 14.3901ZM11.2498 5.39014C11.2498 4.84014 11.6998 4.39014 12.2498 4.39014C12.7998 4.39014 13.2498 4.84014 13.2498 5.39014V11.3901C13.2498 11.9401 12.7998 12.3901 12.2498 12.3901C11.6998 12.3901 11.2498 11.9401 11.2498 11.3901V5.39014ZM18.2498 11.3901C17.6975 11.3901 17.2602 11.8423 17.1509 12.3837C16.6897 14.6682 14.6696 16.3901 12.2498 16.3901C9.82999 16.3901 7.80988 14.6682 7.34868 12.3837C7.23939 11.8423 6.80211 11.3901 6.24983 11.3901C5.69754 11.3901 5.24227 11.8402 5.32025 12.387C5.75771 15.4543 8.18499 17.8671 11.2498 18.3101V20.3901C11.2498 20.9424 11.6975 21.3901 12.2498 21.3901C12.8021 21.3901 13.2498 20.9424 13.2498 20.3901V18.3101C16.3146 17.8671 18.7419 15.4543 19.1794 12.3869C19.2574 11.8402 18.8021 11.3901 18.2498 11.3901Z" fill="white"/>
</svg>
