<svg width="25" height="31" viewBox="0 0 25 31" fill="none" xmlns="http://www.w3.org/2000/svg">
<g filter="url(#filter0_d_4_1150)">
<path d="M15.4102 9.68994C15.4102 11.0706 14.2909 12.1899 12.9102 12.1899C11.5295 12.1899 10.4102 11.0706 10.4102 9.68994C10.4102 8.30923 11.5295 7.18994 12.9102 7.18994C14.2909 7.18994 15.4102 8.30923 15.4102 9.68994Z" fill="#3F4E5D" fill-opacity="0.6"/>
<path d="M5.91016 9.68994C5.91016 5.81994 9.04016 2.68994 12.9102 2.68994C16.7802 2.68994 19.9102 5.81994 19.9102 9.68994C19.9102 14.9399 12.9102 22.6899 12.9102 22.6899C12.9102 22.6899 5.91016 14.9399 5.91016 9.68994ZM12.9102 4.68994C10.1502 4.68994 7.91016 6.92994 7.91016 9.68994C7.91016 12.5399 10.8302 16.8999 12.9102 19.5699C15.0302 16.8799 17.9102 12.5699 17.9102 9.68994C17.9102 6.92994 15.6702 4.68994 12.9102 4.68994Z" fill="#3F4E5D" fill-opacity="0.6"/>
</g>
<defs>
<filter id="filter0_d_4_1150" x="-3.08984" y="0.689941" width="32" height="32" filterUnits="userSpaceOnUse" color-interpolation-filters="sRGB">
<feFlood flood-opacity="0" result="BackgroundImageFix"/>
<feColorMatrix in="SourceAlpha" type="matrix" values="0 0 0 0 0 0 0 0 0 0 0 0 0 0 0 0 0 0 127 0" result="hardAlpha"/>
<feOffset dy="4"/>
<feGaussianBlur stdDeviation="2"/>
<feComposite in2="hardAlpha" operator="out"/>
<feColorMatrix type="matrix" values="0 0 0 0 0 0 0 0 0 0 0 0 0 0 0 0 0 0 0.25 0"/>
<feBlend mode="normal" in2="BackgroundImageFix" result="effect1_dropShadow_4_1150"/>
<feBlend mode="normal" in="SourceGraphic" in2="effect1_dropShadow_4_1150" result="shape"/>
</filter>
</defs>
</svg>
