<svg width="25" height="25" viewBox="0 0 25 25" fill="none" xmlns="http://www.w3.org/2000/svg">
<path d="M16.75 14.3901H15.96L15.68 14.1201C16.66 12.9801 17.25 11.5001 17.25 9.89014C17.25 6.30014 14.34 3.39014 10.75 3.39014C7.16 3.39014 4.25 6.30014 4.25 9.89014C4.25 13.4801 7.16 16.3901 10.75 16.3901C12.36 16.3901 13.84 15.8001 14.98 14.8201L15.25 15.1001V15.8901L19.5043 20.1358C19.9162 20.547 20.5834 20.5467 20.995 20.1351C21.4066 19.7235 21.4069 19.0563 20.9957 18.6444L16.75 14.3901ZM10.75 14.3901C8.26 14.3901 6.25 12.3801 6.25 9.89014C6.25 7.40014 8.26 5.39014 10.75 5.39014C13.24 5.39014 15.25 7.40014 15.25 9.89014C15.25 12.3801 13.24 14.3901 10.75 14.3901Z" fill="white"/>
</svg>
