<svg width="24" height="25" viewBox="0 0 24 25" fill="none" xmlns="http://www.w3.org/2000/svg">
<g clip-path="url(#clip0_4_112)">
<g clip-path="url(#clip1_4_112)">
<g clip-path="url(#clip2_4_112)">
<path fill-rule="evenodd" clip-rule="evenodd" d="M7.5 3.39062C7.5 1.73377 8.84317 0.390625 10.5 0.390625H14.25C15.9068 0.390625 17.25 1.73377 17.25 3.39062V4.33133C17.25 4.77993 17.4357 5.20853 17.7629 5.51535C18.3927 6.10574 18.75 6.93045 18.75 7.79367V7.89062C19.1642 7.89062 19.5 8.2264 19.5 8.64062V10.8906C19.5 11.3048 19.1642 11.6406 18.75 11.6406V16.9876C18.75 17.8508 18.3927 18.6755 17.7629 19.2659C17.4357 19.5727 17.25 20.0013 17.25 20.4499V21.3906C17.25 23.0475 15.9068 24.3906 14.25 24.3906H10.5C8.84317 24.3906 7.5 23.0475 7.5 21.3906V20.4499C7.5 20.0013 7.31432 19.5727 6.98705 19.2659C6.35729 18.6755 6 17.8508 6 16.9876V7.79367C6 6.93045 6.35729 6.10574 6.98705 5.51535C7.31432 5.20853 7.5 4.77993 7.5 4.33133V3.39062ZM15.75 4.33133C15.75 4.52043 15.7672 4.70769 15.8005 4.89104C15.7837 4.89077 15.7669 4.89062 15.75 4.89062H9C8.98312 4.89062 8.96625 4.89077 8.94945 4.89104C8.98283 4.70769 9 4.52043 9 4.33133V3.39062C9 2.5622 9.67155 1.89062 10.5 1.89062H14.25C15.0784 1.89062 15.75 2.5622 15.75 3.39062V4.33133ZM7.5 7.89062C7.5 7.0622 8.17155 6.39062 9 6.39062H15.75C16.5784 6.39062 17.25 7.0622 17.25 7.89062V16.8906C17.25 17.7191 16.5784 18.3906 15.75 18.3906H9C8.17155 18.3906 7.5 17.7191 7.5 16.8906V7.89062ZM15.75 19.8906C15.7669 19.8906 15.7837 19.8905 15.8005 19.8902C15.7672 20.0735 15.75 20.2608 15.75 20.4499V21.3906C15.75 22.2191 15.0784 22.8906 14.25 22.8906H10.5C9.67155 22.8906 9 22.2191 9 21.3906V20.4499C9 20.2608 8.98283 20.0735 8.94945 19.8902C8.96625 19.8905 8.98312 19.8906 9 19.8906H15.75ZM11.625 9.39062C11.625 8.9764 11.9608 8.64062 12.375 8.64062C12.7892 8.64062 13.125 8.9764 13.125 9.39062V11.913L15.4111 12.9789C15.7864 13.154 15.9489 13.6002 15.7738 13.9756C15.5988 14.3511 15.1525 14.5134 14.7772 14.3384L12.0691 13.0756C11.9422 13.0188 11.8339 12.9279 11.7561 12.8144C11.6734 12.6938 11.625 12.5479 11.625 12.3906C11.625 12.3908 11.625 12.3905 11.625 12.3906V9.39062Z" fill="#3F4E5D" fill-opacity="0.6"/>
</g>
</g>
</g>
<defs>
<clipPath id="clip0_4_112">
<rect width="24" height="24" fill="white" transform="translate(0 0.390625)"/>
</clipPath>
<clipPath id="clip1_4_112">
<rect width="24" height="24" fill="white" transform="translate(0 0.390625)"/>
</clipPath>
<clipPath id="clip2_4_112">
<rect width="24" height="24" fill="white" transform="translate(0 0.390625)"/>
</clipPath>
</defs>
</svg>
