<svg width="24" height="25" viewBox="0 0 24 25" fill="none" xmlns="http://www.w3.org/2000/svg">
<g clip-path="url(#clip0_4_147)">
<g clip-path="url(#clip1_4_147)">
<path fill-rule="evenodd" clip-rule="evenodd" d="M0.75 4.14062C0.75 3.3122 1.42157 2.64062 2.25 2.64062H5.25C6.07843 2.64062 6.75 3.3122 6.75 4.14062V6.21354C7.21031 6.62553 7.5 7.22425 7.5 7.89062V16.8906C7.5 17.557 7.21031 18.1557 6.75 18.5677V20.6406C6.75 21.4691 6.07843 22.1406 5.25 22.1406H2.25C1.42157 22.1406 0.75 21.4691 0.75 20.6406V18.5677C0.289688 18.1557 0 17.557 0 16.8906V7.89062C0 7.22425 0.289688 6.62553 0.75 6.21354V4.14062ZM2.25 17.6406H5.25C5.66421 17.6406 6 17.3048 6 16.8906V7.89062C6 7.47641 5.66421 7.14062 5.25 7.14062H2.25C1.83579 7.14062 1.5 7.47641 1.5 7.89062V16.8906C1.5 17.3048 1.83579 17.6406 2.25 17.6406ZM5.25 19.1406H2.25V20.6406H5.25V19.1406ZM5.25 4.14062V5.64062H2.25V4.14062H5.25ZM9 7.14062C9 5.89799 10.0073 4.89062 11.25 4.89062H21.75C22.9927 4.89062 24 5.89799 24 7.14062V17.6406C24 18.8833 22.9927 19.8906 21.75 19.8906H11.25C10.0073 19.8906 9 18.8833 9 17.6406V7.14062ZM18.75 6.39062H14.25V7.89062C14.25 8.30485 14.5858 8.64062 15 8.64062H18C18.4142 8.64062 18.75 8.30485 18.75 7.89062V6.39062ZM12.75 7.89062C12.75 9.1333 13.7573 10.1406 15 10.1406H18C19.2427 10.1406 20.25 9.1333 20.25 7.89062V6.39062H21.75C22.1642 6.39062 22.5 6.72641 22.5 7.14062V17.6406C22.5 18.0548 22.1642 18.3906 21.75 18.3906H11.25C10.8358 18.3906 10.5 18.0548 10.5 17.6406V7.14062C10.5 6.72641 10.8358 6.39062 11.25 6.39062H12.75V7.89062ZM3.98519 13.5695C3.90008 13.6263 3.82243 13.6592 3.74925 13.6592C3.67608 13.6592 3.59993 13.6263 3.51332 13.5695C2.75174 13.0723 2.25 12.4631 2.25 11.8613C2.25 11.2774 2.63825 10.8906 3.11759 10.8906C3.4043 10.8906 3.6171 11.0028 3.75 11.2656C3.88439 11.0028 4.0942 10.8906 4.38091 10.8906C4.86175 10.8906 5.25 11.2774 5.25 11.8613C5.25 12.4631 4.74826 13.0723 3.98519 13.5695Z" fill="#3F4E5D" fill-opacity="0.6"/>
</g>
</g>
<defs>
<clipPath id="clip0_4_147">
<rect width="24" height="24" fill="white" transform="translate(0 0.390625)"/>
</clipPath>
<clipPath id="clip1_4_147">
<rect width="24" height="24" fill="white" transform="translate(0 0.390625)"/>
</clipPath>
</defs>
</svg>
