<svg width="24" height="25" viewBox="0 0 24 25" fill="none" xmlns="http://www.w3.org/2000/svg">
<g clip-path="url(#clip0_4_65)">
<g clip-path="url(#clip1_4_65)">
<path fill-rule="evenodd" clip-rule="evenodd" d="M1.5 12.3901C1.5 11.1475 2.50736 10.1401 3.75 10.1401H15.75C16.9927 10.1401 18 11.1475 18 12.3901V21.3901H18.75C19.1642 21.3901 19.5 21.7259 19.5 22.1401C19.5 22.5544 19.1642 22.8901 18.75 22.8901H0.75C0.335787 22.8901 0 22.5544 0 22.1401C0 21.7259 0.335786 21.3901 0.75 21.3901H1.5V12.3901ZM16.5 12.3901V21.3901H3V12.3901C3 11.9759 3.33579 11.6401 3.75 11.6401H15.75C16.1642 11.6401 16.5 11.9759 16.5 12.3901Z" fill="#3F4E5D" fill-opacity="0.6"/>
<path d="M14.25 1.89014C13.0073 1.89014 12 2.8975 12 4.14014V8.64014C12 9.05436 12.3358 9.39014 12.75 9.39014C13.1642 9.39014 13.5 9.05436 13.5 8.64014V4.14014C13.5 3.72593 13.8358 3.39014 14.25 3.39014H21C21.4142 3.39014 21.75 3.72593 21.75 4.14014V14.6401C21.75 15.0544 21.4142 15.3901 21 15.3901H19.5C19.0858 15.3901 18.75 15.7259 18.75 16.1401C18.75 16.5544 19.0858 16.8901 19.5 16.8901H21C22.2427 16.8901 23.25 15.8828 23.25 14.6401V4.14014C23.25 2.8975 22.2427 1.89014 21 1.89014H14.25Z" fill="#3F4E5D" fill-opacity="0.6"/>
<path d="M21 4.89014C21 5.30435 20.6642 5.64014 20.25 5.64014C19.8358 5.64014 19.5 5.30435 19.5 4.89014C19.5 4.47593 19.8358 4.14014 20.25 4.14014C20.6642 4.14014 21 4.47593 21 4.89014Z" fill="#3F4E5D" fill-opacity="0.6"/>
</g>
</g>
<defs>
<clipPath id="clip0_4_65">
<rect width="24" height="24" fill="white" transform="translate(0 0.390137)"/>
</clipPath>
<clipPath id="clip1_4_65">
<rect width="24" height="24" fill="white" transform="translate(0 0.390137)"/>
</clipPath>
</defs>
</svg>
