<svg width="24" height="25" viewBox="0 0 24 25" fill="none" xmlns="http://www.w3.org/2000/svg">
<g clip-path="url(#clip0_4_57)">
<g clip-path="url(#clip1_4_57)">
<path fill-rule="evenodd" clip-rule="evenodd" d="M3.75 1.14014C2.09314 1.14014 0.75 2.48328 0.75 4.14014V20.6401C0.75 22.297 2.09314 23.6401 3.75 23.6401H10.5C12.1568 23.6401 13.5 22.297 13.5 20.6401V4.14014C13.5 2.48328 12.1568 1.14014 10.5 1.14014H3.75ZM2.25 4.14014C2.25 3.31171 2.92157 2.64014 3.75 2.64014H4.23691C4.40722 2.64014 4.57245 2.6981 4.70543 2.80448L5.23207 3.22579C5.36505 3.33218 5.53028 3.39014 5.70059 3.39014H8.5494C8.71973 3.39014 8.88495 3.33218 9.01793 3.22579L9.54457 2.80448C9.67755 2.6981 9.84277 2.64014 10.0131 2.64014H10.5C11.3284 2.64014 12 3.31171 12 4.14014V20.6401C12 21.4686 11.3284 22.1401 10.5 22.1401H3.75C2.92157 22.1401 2.25 21.4686 2.25 20.6401V4.14014Z" fill="#3F4E5D" fill-opacity="0.6"/>
<path fill-rule="evenodd" clip-rule="evenodd" d="M15 9.39014C15 8.14746 16.0073 7.14014 17.25 7.14014H21.75C22.9927 7.14014 24 8.14746 24 9.39014V21.3901C24 22.6328 22.9927 23.6401 21.75 23.6401H17.25C16.0073 23.6401 15 22.6328 15 21.3901V9.39014ZM17.25 8.64014C16.8358 8.64014 16.5 8.97591 16.5 9.39014V15.3901H22.5V9.39014C22.5 8.97591 22.1642 8.64014 21.75 8.64014H17.25ZM17.25 22.1401C16.8358 22.1401 16.5 21.8044 16.5 21.3901C16.5 20.9759 16.8358 20.6401 17.25 20.6401C17.6642 20.6401 18 20.9759 18 21.3901C18 21.8044 17.6642 22.1401 17.25 22.1401ZM22.5 21.3901C22.5 21.8044 22.1642 22.1401 21.75 22.1401C21.3358 22.1401 21 21.8044 21 21.3901C21 20.9759 21.3358 20.6401 21.75 20.6401C22.1642 20.6401 22.5 20.9759 22.5 21.3901ZM21.75 19.8901C22.1642 19.8901 22.5 19.5544 22.5 19.1401C22.5 18.7259 22.1642 18.3901 21.75 18.3901C21.3358 18.3901 21 18.7259 21 19.1401C21 19.5544 21.3358 19.8901 21.75 19.8901ZM20.25 21.3901C20.25 21.8044 19.9142 22.1401 19.5 22.1401C19.0858 22.1401 18.75 21.8044 18.75 21.3901C18.75 20.9759 19.0858 20.6401 19.5 20.6401C19.9142 20.6401 20.25 20.9759 20.25 21.3901ZM17.25 19.8901C16.8358 19.8901 16.5 19.5544 16.5 19.1401C16.5 18.7259 16.8358 18.3901 17.25 18.3901C17.6642 18.3901 18 18.7259 18 19.1401C18 19.5544 17.6642 19.8901 17.25 19.8901ZM17.25 16.1401C16.8358 16.1401 16.5 16.4759 16.5 16.8901C16.5 17.3044 16.8358 17.6401 17.25 17.6401C17.6642 17.6401 18 17.3044 18 16.8901C18 16.4759 17.6642 16.1401 17.25 16.1401ZM21.75 16.1401C22.1642 16.1401 22.5 16.4759 22.5 16.8901C22.5 17.3044 22.1642 17.6401 21.75 17.6401C21.3358 17.6401 21 17.3044 21 16.8901C21 16.4759 21.3358 16.1401 21.75 16.1401ZM20.25 16.8901C20.25 17.3044 19.9142 17.6401 19.5 17.6401C19.0858 17.6401 18.75 17.3044 18.75 16.8901C18.75 16.4759 19.0858 16.1401 19.5 16.1401C19.9142 16.1401 20.25 16.4759 20.25 16.8901ZM19.5 19.8901C19.9142 19.8901 20.25 19.5544 20.25 19.1401C20.25 18.7259 19.9142 18.3901 19.5 18.3901C19.0858 18.3901 18.75 18.7259 18.75 19.1401C18.75 19.5544 19.0858 19.8901 19.5 19.8901Z" fill="#3F4E5D" fill-opacity="0.6"/>
</g>
</g>
<defs>
<clipPath id="clip0_4_57">
<rect width="24" height="24" fill="white" transform="translate(0 0.390137)"/>
</clipPath>
<clipPath id="clip1_4_57">
<rect width="24" height="24" fill="white" transform="translate(0 0.390137)"/>
</clipPath>
</defs>
</svg>
