<svg width="24" height="25" viewBox="0 0 24 25" fill="none" xmlns="http://www.w3.org/2000/svg">
<g clip-path="url(#clip0_4_93)">
<g clip-path="url(#clip1_4_93)">
<g clip-path="url(#clip2_4_93)">
<mask id="mask0_4_93" style="mask-type:luminance" maskUnits="userSpaceOnUse" x="0" y="0" width="24" height="25">
<path d="M24 0.390625H0V24.3906H24V0.390625Z" fill="white"/>
</mask>
<g mask="url(#mask0_4_93)">
<path fill-rule="evenodd" clip-rule="evenodd" d="M6.4057 6.73761C10.499 6.27254 13.4943 6.27675 17.5888 6.73958C18.7259 6.86811 19.6808 7.67435 20.029 8.78763L22.4285 16.4605C22.7279 17.4177 22.0127 18.3906 21.0098 18.3906C20.5205 18.3906 20.0625 18.1498 19.7851 17.7467L19.2618 16.986C18.4834 15.8546 17.198 15.1787 15.8246 15.1787H8.17365C6.80033 15.1787 5.51493 15.8546 4.73651 16.986L4.21319 17.7467C3.93584 18.1498 3.47787 18.3906 2.98856 18.3906C1.9856 18.3906 1.27049 17.4177 1.56984 16.4605L3.97047 8.78388C4.31818 7.67202 5.27094 6.86653 6.4057 6.73761ZM17.7573 5.24907C13.552 4.77372 10.4434 4.76921 6.23636 5.24719C4.48891 5.44573 3.0569 6.67956 2.53884 8.3362L0.138208 16.0128C-0.463216 17.936 0.973508 19.8906 2.98856 19.8906C3.97164 19.8906 4.89176 19.4068 5.44897 18.5969L5.9723 17.8362C6.47085 17.1116 7.2941 16.6787 8.17365 16.6787H15.8246C16.7042 16.6787 17.5275 17.1116 18.026 17.8362L18.5494 18.5969C19.1066 19.4068 20.0267 19.8906 21.0098 19.8906C23.0248 19.8906 24.4615 17.936 23.8601 16.0128L21.4607 8.33995C20.9418 6.68083 19.5067 5.44681 17.7573 5.24907ZM8.2323 7.89063C7.81808 7.89063 7.47897 8.2264 7.47897 8.64063V10.1406H5.969C5.55479 10.1406 5.219 10.4764 5.219 10.8906C5.219 11.3048 5.55479 11.6406 5.969 11.6406H7.47897V13.1406C7.47897 13.5548 7.81808 13.8906 8.2323 13.8906C8.64653 13.8906 8.9856 13.5548 8.9856 13.1406V11.6406H10.4956C10.9099 11.6406 11.2456 11.3048 11.2456 10.8906C11.2456 10.4764 10.9099 10.1406 10.4956 10.1406H8.9856V8.64063C8.9856 8.2264 8.64653 7.89063 8.2323 7.89063ZM18.0256 9.01563C18.0256 9.63693 17.5197 10.1406 16.8956 10.1406C16.2716 10.1406 15.7656 9.63693 15.7656 9.01563C15.7656 8.39433 16.2716 7.89063 16.8956 7.89063C17.5197 7.89063 18.0256 8.39433 18.0256 9.01563ZM16.5189 12.7656C16.5189 13.3869 16.0129 13.8906 15.3889 13.8906C14.7648 13.8906 14.2589 13.3869 14.2589 12.7656C14.2589 12.1443 14.7648 11.6406 15.3889 11.6406C16.0129 11.6406 16.5189 12.1443 16.5189 12.7656Z" fill="#3F4E5D" fill-opacity="0.6"/>
</g>
</g>
</g>
</g>
<defs>
<clipPath id="clip0_4_93">
<rect width="24" height="24" fill="white" transform="translate(0 0.390625)"/>
</clipPath>
<clipPath id="clip1_4_93">
<rect width="24" height="24" fill="white" transform="translate(0 0.390625)"/>
</clipPath>
<clipPath id="clip2_4_93">
<rect width="24" height="24" fill="white" transform="translate(0 0.390625)"/>
</clipPath>
</defs>
</svg>
