<svg width="24" height="25" viewBox="0 0 24 25" fill="none" xmlns="http://www.w3.org/2000/svg">
<g clip-path="url(#clip0_4_186)">
<g clip-path="url(#clip1_4_186)">
<path fill-rule="evenodd" clip-rule="evenodd" d="M6.78647 4.02259C7.20995 3.17563 8.07562 2.64062 9.02257 2.64062H14.9774C15.9244 2.64062 16.79 3.17563 17.2136 4.02259L17.7725 5.14062H19.5C21.571 5.14062 23.25 6.81956 23.25 8.8906V17.6406C23.25 19.7117 21.571 21.3906 19.5 21.3906H4.5C2.42893 21.3906 0.75 19.7117 0.75 17.6406V8.8906C0.75 6.81956 2.42893 5.14062 4.5 5.14062H6.22746L6.78647 4.02259ZM15.8719 4.69341L16.4309 5.81144C16.5939 6.1375 16.8662 6.38651 17.1905 6.5231L17.7725 6.64062H19.5C20.7427 6.64062 21.75 7.64798 21.75 8.8906V17.6406C21.75 18.8833 20.7427 19.8906 19.5 19.8906H4.5C3.25736 19.8906 2.25 18.8833 2.25 17.6406V8.8906C2.25 7.64798 3.25736 6.64062 4.5 6.64062H6.22746C6.79561 6.64062 7.31501 6.31962 7.56908 5.81144L8.12812 4.69341C8.29747 4.35463 8.64375 4.14062 9.02257 4.14062H14.9774C15.3563 4.14062 15.7025 4.35463 15.8719 4.69341Z" fill="#3F4E5D" fill-opacity="0.6"/>
<path fill-rule="evenodd" clip-rule="evenodd" d="M12 16.8906C14.071 16.8906 15.75 15.2117 15.75 13.1406C15.75 11.0696 14.071 9.39062 12 9.39062C9.92895 9.39062 8.25 11.0696 8.25 13.1406C8.25 15.2117 9.92895 16.8906 12 16.8906ZM12 18.3906C14.8995 18.3906 17.25 16.0401 17.25 13.1406C17.25 10.2411 14.8995 7.89062 12 7.89062C9.1005 7.89062 6.75 10.2411 6.75 13.1406C6.75 16.0401 9.1005 18.3906 12 18.3906Z" fill="#3F4E5D" fill-opacity="0.6"/>
</g>
</g>
<defs>
<clipPath id="clip0_4_186">
<rect width="24" height="24" fill="white" transform="translate(0 0.390625)"/>
</clipPath>
<clipPath id="clip1_4_186">
<rect width="24" height="24" fill="white" transform="translate(0 0.390625)"/>
</clipPath>
</defs>
</svg>
