<svg width="24" height="25" viewBox="0 0 24 25" fill="none" xmlns="http://www.w3.org/2000/svg">
<g clip-path="url(#clip0_4_135)">
<g clip-path="url(#clip1_4_135)">
<path fill-rule="evenodd" clip-rule="evenodd" d="M5.875 13.8906C5.875 10.5079 8.61728 7.76562 12 7.76562C15.3827 7.76562 18.125 10.5079 18.125 13.8906C18.125 17.2734 15.3827 20.0157 12 20.0157C8.61728 20.0157 5.875 17.2734 5.875 13.8906ZM12 9.51565C9.58373 9.51565 7.62503 11.4744 7.62503 13.8906C7.62503 13.9702 7.62713 14.0493 7.63133 14.1278C8.70435 13.6137 9.58845 13.4302 10.3794 13.4761C11.2622 13.5273 11.9431 13.8647 12.4922 14.1367L12.5204 14.1507C13.0937 14.4346 13.5306 14.6439 14.0881 14.6804C14.6096 14.7145 15.3176 14.5978 16.3719 14.0575C16.3739 14.0021 16.375 13.9465 16.375 13.8906C16.375 11.4744 14.4163 9.51565 12 9.51565ZM15.8907 15.8934C15.1837 16.1329 14.5622 16.2146 13.9901 16.1772C13.1159 16.1199 12.4394 15.7847 11.8946 15.5146L11.8547 15.4949C11.2836 15.2121 10.8477 15.0058 10.2925 14.9736C9.76778 14.9431 9.05265 15.0681 7.98398 15.629C8.65643 17.1804 10.2014 18.2656 12 18.2656C13.6946 18.2656 15.164 17.3022 15.8907 15.8934Z" fill="#3F4E5D" fill-opacity="0.6"/>
<path d="M15.45 3.39062C15.2015 3.39062 15 3.5921 15 3.84062V5.19063C15 5.43915 15.2015 5.64062 15.45 5.64062H18.3C18.5485 5.64062 18.75 5.43915 18.75 5.19063V3.84062C18.75 3.5921 18.5485 3.39062 18.3 3.39062H15.45Z" fill="#3F4E5D" fill-opacity="0.6"/>
<path d="M13.125 4.51562C13.125 5.13695 12.6213 5.64062 12 5.64062C11.3787 5.64062 10.875 5.13695 10.875 4.51562C10.875 3.8943 11.3787 3.39062 12 3.39062C12.6213 3.39062 13.125 3.8943 13.125 4.51562Z" fill="#3F4E5D" fill-opacity="0.6"/>
<path fill-rule="evenodd" clip-rule="evenodd" d="M3 3.39062C3 2.14799 4.00736 1.14062 5.25 1.14062H18.75C19.9927 1.14062 21 2.14799 21 3.39062V21.3906C21 22.6333 19.9927 23.6406 18.75 23.6406H5.25C4.00736 23.6406 3 22.6333 3 21.3906V3.39062ZM5.25 2.64062C4.83579 2.64062 4.5 2.97641 4.5 3.39062V21.3906C4.5 21.8048 4.83579 22.1406 5.25 22.1406H18.75C19.1642 22.1406 19.5 21.8048 19.5 21.3906V3.39062C19.5 2.97641 19.1642 2.64062 18.75 2.64062H5.25Z" fill="#3F4E5D" fill-opacity="0.6"/>
</g>
</g>
<defs>
<clipPath id="clip0_4_135">
<rect width="24" height="24" fill="white" transform="translate(0 0.390625)"/>
</clipPath>
<clipPath id="clip1_4_135">
<rect width="24" height="24" fill="white" transform="translate(0 0.390625)"/>
</clipPath>
</defs>
</svg>
