<svg width="24" height="25" viewBox="0 0 24 25" fill="none" xmlns="http://www.w3.org/2000/svg">
<g clip-path="url(#clip0_4_173)">
<g clip-path="url(#clip1_4_173)">
<path fill-rule="evenodd" clip-rule="evenodd" d="M11.494 2.07888C11.7778 1.82787 12.2042 1.82787 12.4879 2.07888L18 6.29147V3.76563C18 3.55852 18.1679 3.39063 18.375 3.39063H19.125C19.3321 3.39063 19.5 3.55852 19.5 3.76563V7.61839L22.9969 10.7118C23.3071 10.9863 23.3362 11.4603 23.0617 11.7705C22.7873 12.0807 22.3133 12.1098 22.003 11.8353L21 10.948V21.3906C21 22.2191 20.3284 22.8906 19.5 22.8906H4.5C3.67157 22.8906 3 22.2191 3 21.3906V10.9321L1.99694 11.8194C1.6867 12.0939 1.2127 12.0648 0.938264 11.7546C0.663814 11.4444 0.692833 10.9704 1.00308 10.6959L11.494 2.07888ZM4.5 9.6052V21.3906H19.5V9.6211L11.991 3.64197L4.5 9.6052Z" fill="#3F4E5D" fill-opacity="0.6"/>
<path d="M9.47018 11.4044C10.2891 11.0652 11.1669 10.8906 12.0533 10.8906C12.9398 10.8906 13.8175 11.0652 14.6364 11.4044C15.4553 11.7437 16.1995 12.2408 16.8262 12.8676C17.1192 13.1606 17.594 13.1606 17.8869 12.8676C18.1798 12.5747 18.1798 12.0999 17.8869 11.807C17.1208 11.0409 16.2114 10.4332 15.2104 10.0186C14.2095 9.604 13.1367 9.39062 12.0533 9.39062C10.9699 9.39062 9.89708 9.604 8.8962 10.0186C7.89525 10.4332 6.98576 11.0409 6.21967 11.807C5.92678 12.0999 5.92678 12.5747 6.21967 12.8676C6.51257 13.1606 6.98744 13.1606 7.28033 12.8676C7.9071 12.2408 8.65125 11.7437 9.47018 11.4044Z" fill="#3F4E5D" fill-opacity="0.6"/>
<path d="M10.3315 13.4831C10.8775 13.257 11.4626 13.1406 12.0536 13.1406C12.6446 13.1406 13.2297 13.257 13.7756 13.4831C14.3216 13.7093 14.8177 14.0408 15.2356 14.4587C15.5285 14.7516 16.0034 14.7516 16.2962 14.4587C16.5891 14.1657 16.5891 13.6909 16.2962 13.3979C15.7391 12.8408 15.0776 12.3989 14.3497 12.0974C13.6217 11.7958 12.8415 11.6406 12.0536 11.6406C11.2657 11.6406 10.4855 11.7958 9.75751 12.0974C9.02956 12.3989 8.36806 12.8408 7.81096 13.3979C7.51809 13.6909 7.51809 14.1657 7.81096 14.4587C8.10384 14.7516 8.57874 14.7516 8.87161 14.4587C9.28944 14.0408 9.78556 13.7093 10.3315 13.4831Z" fill="#3F4E5D" fill-opacity="0.6"/>
<path d="M12.0535 15.3906C11.758 15.3906 11.4654 15.4488 11.1925 15.5619C10.9195 15.6749 10.6714 15.8407 10.4625 16.0497C10.1696 16.3425 9.69472 16.3425 9.40184 16.0497C9.10889 15.7568 9.10889 15.2819 9.40184 14.989C9.75007 14.6408 10.1635 14.3645 10.6184 14.1761C11.0734 13.9876 11.561 13.8906 12.0535 13.8906C12.5459 13.8906 13.0336 13.9876 13.4885 14.1761C13.9435 14.3645 14.3569 14.6408 14.7051 14.989C14.998 15.2819 14.998 15.7568 14.7051 16.0497C14.4122 16.3425 13.9373 16.3425 13.6444 16.0497C13.4355 15.8407 13.1875 15.6749 12.9145 15.5619C12.6415 15.4488 12.349 15.3906 12.0535 15.3906Z" fill="#3F4E5D" fill-opacity="0.6"/>
<path d="M13.1139 16.58C12.5281 15.9942 11.5784 15.9942 10.9925 16.58C10.4068 17.1657 10.4068 18.1155 10.9925 18.7013C11.5784 19.2871 12.5281 19.2871 13.1139 18.7013C13.6997 18.1155 13.6997 17.1657 13.1139 16.58Z" fill="#3F4E5D" fill-opacity="0.6"/>
</g>
</g>
<defs>
<clipPath id="clip0_4_173">
<rect width="24" height="24" fill="white" transform="translate(0 0.390625)"/>
</clipPath>
<clipPath id="clip1_4_173">
<rect width="24" height="24" fill="white" transform="translate(0 0.390625)"/>
</clipPath>
</defs>
</svg>
