<svg width="24" height="25" viewBox="0 0 24 25" fill="none" xmlns="http://www.w3.org/2000/svg">
<g clip-path="url(#clip0_4_154)">
<g clip-path="url(#clip1_4_154)">
<g clip-path="url(#clip2_4_154)">
<mask id="mask0_4_154" style="mask-type:luminance" maskUnits="userSpaceOnUse" x="0" y="0" width="24" height="25">
<path d="M24 0.390625H0V24.3906H24V0.390625Z" fill="white"/>
</mask>
<g mask="url(#mask0_4_154)">
<path d="M8.55322 2.08398C8.83852 1.82631 9.27255 1.82615 9.55807 2.08362L12.75 4.96176V2.26562C12.75 2.05852 12.9179 1.89062 13.125 1.89062H13.875C14.0821 1.89062 14.25 2.05852 14.25 2.26562V6.3143L17.7523 9.47222C18.0599 9.74965 18.0844 10.2239 17.807 10.5315C17.5296 10.8391 17.0554 10.8636 16.7477 10.5863L15.7501 9.68657V12.3906C15.7501 12.8048 15.4142 13.1406 15.0001 13.1406C14.5858 13.1406 14.2501 12.8048 14.2501 12.3906V8.3341L9.05617 3.65082L3.75005 8.44218V16.8906H5.25V12.0156C5.25 11.8085 5.41789 11.6406 5.625 11.6406H8.625C8.83208 11.6406 9 11.8085 9 12.0156V16.8906H10.1251C10.5392 16.8906 10.8751 17.2264 10.8751 17.6406C10.8751 18.0548 10.5392 18.3906 10.1251 18.3906H3.75005C2.92162 18.3906 2.25005 17.7191 2.25005 16.8906V9.79667L1.25264 10.6973C0.945218 10.9748 0.470961 10.9507 0.193361 10.6433C-0.0842392 10.3359 -0.0600596 9.86155 0.247367 9.58398L8.55322 2.08398Z" fill="#3F4E5D" fill-opacity="0.6"/>
<path fill-rule="evenodd" clip-rule="evenodd" d="M12.7219 15.5065C12.9927 14.533 13.8793 13.8594 14.8897 13.8594H19.6102C20.6206 13.8594 21.5071 14.533 21.7779 15.5065L22.4144 17.7951C22.9095 18.0401 23.25 18.5505 23.25 19.1403V22.5153C23.25 23.1366 22.7463 23.6403 22.125 23.6403C21.5036 23.6403 21 23.1366 21 22.5153V21.8517C19.9003 21.9359 18.5233 22.0129 17.1638 22.0129C15.8461 22.0129 14.5449 21.9252 13.5 21.8268V22.5153C13.5 23.1366 12.9963 23.6403 12.375 23.6403C11.7536 23.6403 11.25 23.1366 11.25 22.5153V19.1403C11.25 18.5505 11.5904 18.0402 12.0855 17.7951L12.7219 15.5065ZM20.3328 15.9085L20.8145 17.6403H13.6855L14.1671 15.9085C14.2574 15.5839 14.5529 15.3594 14.8897 15.3594H19.6102C19.947 15.3594 20.2425 15.5839 20.3328 15.9085ZM15 19.8903C15 19.4761 15.3358 19.1403 15.75 19.1403H18.75C19.1641 19.1403 19.5 19.4761 19.5 19.8903C19.5 20.3045 19.1641 20.6403 18.75 20.6403H15.75C15.3358 20.6403 15 20.3045 15 19.8903ZM12.75 19.8903C13.1641 19.8903 13.5 19.5545 13.5 19.1403C13.5 18.7261 13.1641 18.3903 12.75 18.3903C12.3358 18.3903 12 18.7261 12 19.1403C12 19.5545 12.3358 19.8903 12.75 19.8903ZM22.5 19.1403C22.5 19.5545 22.1641 19.8903 21.75 19.8903C21.3358 19.8903 21 19.5545 21 19.1403C21 18.7261 21.3358 18.3903 21.75 18.3903C22.1641 18.3903 22.5 18.7261 22.5 19.1403Z" fill="#3F4E5D" fill-opacity="0.6"/>
</g>
</g>
</g>
</g>
<defs>
<clipPath id="clip0_4_154">
<rect width="24" height="24" fill="white" transform="translate(0 0.390625)"/>
</clipPath>
<clipPath id="clip1_4_154">
<rect width="24" height="24" fill="white" transform="translate(0 0.390625)"/>
</clipPath>
<clipPath id="clip2_4_154">
<rect width="24" height="24" fill="white" transform="translate(0 0.390625)"/>
</clipPath>
</defs>
</svg>
