<svg width="24" height="25" viewBox="0 0 24 25" fill="none" xmlns="http://www.w3.org/2000/svg">
<g clip-path="url(#clip0_4_119)">
<g clip-path="url(#clip1_4_119)">
<g clip-path="url(#clip2_4_119)">
<path d="M12.6108 18.7656C12.6108 19.3869 12.1071 19.8906 11.4858 19.8906C10.8645 19.8906 10.3608 19.3869 10.3608 18.7656C10.3608 18.1443 10.8645 17.6406 11.4858 17.6406C12.1071 17.6406 12.6108 18.1443 12.6108 18.7656Z" fill="#3F4E5D" fill-opacity="0.6"/>
<path fill-rule="evenodd" clip-rule="evenodd" d="M8.48587 1.89062C8.48587 1.0622 9.15742 0.390625 9.98587 0.390625H12.9859C13.8143 0.390625 14.4859 1.0622 14.4859 1.89062H8.48587ZM6.32182 5.26562L6.00039 3.39062H9.98587C9.15742 3.39062 8.48587 2.71905 8.48587 1.89062H6.00039C5.07067 1.89062 4.36486 2.72772 4.52196 3.64407L6.5758 15.6248C6.59097 15.7133 6.59013 15.8037 6.57334 15.8919L5.4633 21.7196C5.1992 23.1061 6.26212 24.3906 7.67355 24.3906H15.2982C16.7096 24.3906 17.7725 23.1061 17.5084 21.7196L16.3944 15.8708C16.3789 15.7895 16.377 15.7062 16.3887 15.6243L17.9837 4.45882C17.999 4.35169 18.0066 4.24545 18.0067 4.14062H18.2359C18.6501 4.14062 18.9859 4.47641 18.9859 4.89062V10.8906C18.9859 11.3048 19.3216 11.6406 19.7359 11.6406C20.1501 11.6406 20.4859 11.3048 20.4859 10.8906V4.89062C20.4859 3.64799 19.4785 2.64062 18.2359 2.64062H17.4859C17.4688 2.64062 17.4517 2.6412 17.4349 2.64233C17.0255 2.18353 16.4293 1.89062 15.7564 1.89062H14.4859C14.4859 2.71905 13.8143 3.39062 12.9859 3.39062H15.7564C16.2127 3.39062 16.5634 3.79487 16.4988 4.24669L15.0139 14.6406H7.92892L7.54327 12.3906H10.1734C10.484 12.3906 10.7359 12.1388 10.7359 11.8281C10.7359 11.5175 10.484 11.2656 10.1734 11.2656H7.35039L7.02896 9.39062H10.1734C10.484 9.39062 10.7359 9.13878 10.7359 8.82812C10.7359 8.51747 10.484 8.26562 10.1734 8.26562H6.83611L6.51467 6.39062H10.1734C10.484 6.39062 10.7359 6.13878 10.7359 5.82812C10.7359 5.51747 10.484 5.26562 10.1734 5.26562H6.32182ZM6.32182 5.26562H6.04837C5.73772 5.26562 5.48587 5.51747 5.48587 5.82812C5.48587 6.13878 5.73772 6.39062 6.04837 6.39062H6.51467L6.32182 5.26562ZM6.83611 8.26562H6.79837C6.48772 8.26562 6.23587 8.51747 6.23587 8.82812C6.23587 9.13878 6.48772 9.39062 6.79837 9.39062H7.02896L6.83611 8.26562ZM7.35039 11.2656H6.79837C6.48772 11.2656 6.23587 11.5175 6.23587 11.8281C6.23587 12.1388 6.48772 12.3906 6.79837 12.3906H7.54327L7.35039 11.2656ZM8.05267 16.1406C8.09737 15.8863 8.0979 15.626 8.05425 15.3714L7.92892 14.6406H7.73587V16.1406H8.05267ZM8.05267 16.1406H14.9188L14.9209 16.1514L16.0349 22.0003C16.123 22.4625 15.7687 22.8906 15.2982 22.8906H7.67355C7.20308 22.8906 6.84877 22.4625 6.93681 22.0003L8.04682 16.1726L8.04915 16.1604L8.05267 16.1406ZM17.4349 2.64233C17.0445 2.66852 16.7359 2.99353 16.7359 3.39062C16.7359 3.80484 17.0716 4.14062 17.4859 4.14062H18.0067C18.0079 3.571 17.7928 3.04331 17.4349 2.64233Z" fill="#3F4E5D" fill-opacity="0.6"/>
<path d="M14.4858 1.89062H8.48584C8.48584 2.71905 9.15739 3.39062 9.98584 3.39062H12.9858C13.8143 3.39062 14.4858 2.71905 14.4858 1.89062Z" fill="#3F4E5D" fill-opacity="0.6"/>
<path d="M16.7358 3.39088C16.7358 3.80509 17.0716 4.14088 17.4858 4.14088H18.0067C18.0078 3.57125 17.7927 3.04356 17.4349 2.64258C17.0445 2.66877 16.7358 2.99378 16.7358 3.39088Z" fill="#3F4E5D" fill-opacity="0.6"/>
<path d="M6.04834 5.26562C5.73768 5.26562 5.48584 5.51747 5.48584 5.82812C5.48584 6.13878 5.73768 6.39062 6.04834 6.39062H6.51464L6.32178 5.26562H6.04834Z" fill="#3F4E5D" fill-opacity="0.6"/>
<path d="M6.79834 8.26562C6.48768 8.26562 6.23584 8.51747 6.23584 8.82812C6.23584 9.13878 6.48768 9.39062 6.79834 9.39062H7.02893L6.83607 8.26562H6.79834Z" fill="#3F4E5D" fill-opacity="0.6"/>
<path d="M6.79834 11.2656C6.48768 11.2656 6.23584 11.5175 6.23584 11.8281C6.23584 12.1388 6.48768 12.3906 6.79834 12.3906H7.54324L7.35035 11.2656H6.79834Z" fill="#3F4E5D" fill-opacity="0.6"/>
<path d="M7.73584 14.6406V16.1406H8.05264C8.09734 15.8863 8.09787 15.626 8.05422 15.3714L7.92889 14.6406H7.73584Z" fill="#3F4E5D" fill-opacity="0.6"/>
</g>
</g>
</g>
<defs>
<clipPath id="clip0_4_119">
<rect width="24" height="24" fill="white" transform="translate(0 0.390625)"/>
</clipPath>
<clipPath id="clip1_4_119">
<rect width="24" height="24" fill="white" transform="translate(0 0.390625)"/>
</clipPath>
<clipPath id="clip2_4_119">
<rect width="24" height="24" fill="white" transform="translate(0 0.390625)"/>
</clipPath>
</defs>
</svg>
