<svg width="24" height="25" viewBox="0 0 24 25" fill="none" xmlns="http://www.w3.org/2000/svg">
<g clip-path="url(#clip0_4_74)">
<g clip-path="url(#clip1_4_74)">
<path fill-rule="evenodd" clip-rule="evenodd" d="M9 4.14014C7.75732 4.14014 6.75 5.1475 6.75 6.39014V14.7346C8.0439 15.0677 9 16.2423 9 17.6401V18.2431C9 18.3243 8.93415 18.3901 8.85292 18.3901H7.5V20.2651C7.5 20.4722 7.33211 20.6401 7.125 20.6401C6.91789 20.6401 6.75 20.4722 6.75 20.2651V18.3901H5.25V20.2651C5.25 20.4722 5.08211 20.6401 4.875 20.6401C4.66789 20.6401 4.5 20.4722 4.5 20.2651V18.3901H3.14706C3.06584 18.3901 3 18.3243 3 18.2431V17.6401C3 16.2423 3.95608 15.0677 5.25 14.7346V6.39014C5.25 4.31907 6.92893 2.64014 9 2.64014C11.071 2.64014 12.75 4.31907 12.75 6.39014V18.0151C12.75 19.2578 13.7573 20.2651 15 20.2651C16.2427 20.2651 17.25 19.2578 17.25 18.0151V11.6401H16.125C15.9179 11.6401 15.75 11.4722 15.75 11.2651V6.76514C15.75 6.55803 15.9179 6.39014 16.125 6.39014H19.875C20.0821 6.39014 20.25 6.55803 20.25 6.76514V11.2651C20.25 11.4722 20.0821 11.6401 19.875 11.6401H18.75V18.0151C18.75 20.0862 17.071 21.7651 15 21.7651C12.929 21.7651 11.25 20.0862 11.25 18.0151V6.39014C11.25 5.1475 10.2427 4.14014 9 4.14014ZM17.625 7.89014C17.625 7.68303 17.7929 7.51514 18 7.51514C18.2071 7.51514 18.375 7.68303 18.375 7.89014C18.375 8.09721 18.2071 8.26514 18 8.26514C17.7929 8.26514 17.625 8.09721 17.625 7.89014Z" fill="#3F4E5D" fill-opacity="0.6"/>
<path d="M19.5 3.76514H16.5V6.01514H19.5V3.76514Z" fill="#3F4E5D" fill-opacity="0.6"/>
</g>
</g>
<defs>
<clipPath id="clip0_4_74">
<rect width="24" height="24" fill="white" transform="translate(0 0.390137)"/>
</clipPath>
<clipPath id="clip1_4_74">
<rect width="24" height="24" fill="white" transform="translate(0 0.390137)"/>
</clipPath>
</defs>
</svg>
