<svg width="24" height="25" viewBox="0 0 24 25" fill="none" xmlns="http://www.w3.org/2000/svg">
<g clip-path="url(#clip0_4_82)">
<g clip-path="url(#clip1_4_82)">
<path d="M5.25 9.39062C5.25 5.6627 8.27205 2.64062 12 2.64062C15.728 2.64062 18.75 5.6627 18.75 9.39062V11.6406C18.75 12.0548 19.0858 12.3906 19.5 12.3906C19.9142 12.3906 20.25 12.0548 20.25 11.6406V9.39062C20.25 4.83428 16.5563 1.14062 12 1.14062C7.44365 1.14062 3.75 4.83428 3.75 9.39062V11.6406C3.75 12.0548 4.08579 12.3906 4.5 12.3906C4.91421 12.3906 5.25 12.0548 5.25 11.6406V9.39062Z" fill="#3F4E5D" fill-opacity="0.6"/>
<path d="M6.75 7.89062C6.33579 7.89062 6 8.2264 6 8.64062V13.1406C6 13.5548 6.33579 13.8906 6.75 13.8906H7.5C7.91422 13.8906 8.25 13.5548 8.25 13.1406V8.64062C8.25 8.2264 7.91422 7.89062 7.5 7.89062H6.75Z" fill="#3F4E5D" fill-opacity="0.6"/>
<path d="M15.75 8.64062C15.75 8.2264 16.0858 7.89062 16.5 7.89062H17.25C17.6642 7.89062 18 8.2264 18 8.64062V13.1406C18 13.5548 17.6642 13.8906 17.25 13.8906H16.5C16.0858 13.8906 15.75 13.5548 15.75 13.1406V8.64062Z" fill="#3F4E5D" fill-opacity="0.6"/>
<path d="M12.75 19.8906C12.75 20.3048 12.4142 20.6406 12 20.6406C11.5858 20.6406 11.25 20.3048 11.25 19.8906C11.25 19.4764 11.5858 19.1406 12 19.1406C12.4142 19.1406 12.75 19.4764 12.75 19.8906Z" fill="#3F4E5D" fill-opacity="0.6"/>
<path fill-rule="evenodd" clip-rule="evenodd" d="M3.75 19.1406C3.75 17.4838 5.09314 16.1406 6.75 16.1406H17.25C18.9068 16.1406 20.25 17.4838 20.25 19.1406V20.6406C20.25 22.2975 18.9068 23.6406 17.25 23.6406H6.75C5.09314 23.6406 3.75 22.2975 3.75 20.6406V19.1406ZM17.25 22.1406C18.0784 22.1406 18.75 21.4691 18.75 20.6406V19.1406C18.75 18.3122 18.0784 17.6406 17.25 17.6406V22.1406ZM8.25 17.6406H15.75V22.1406H8.25V17.6406ZM5.25 19.1406C5.25 18.3122 5.92157 17.6406 6.75 17.6406V22.1406C5.92157 22.1406 5.25 21.4691 5.25 20.6406V19.1406Z" fill="#3F4E5D" fill-opacity="0.6"/>
</g>
</g>
<defs>
<clipPath id="clip0_4_82">
<rect width="24" height="24" fill="white" transform="translate(0 0.390625)"/>
</clipPath>
<clipPath id="clip1_4_82">
<rect width="24" height="24" fill="white" transform="translate(0 0.390625)"/>
</clipPath>
</defs>
</svg>
