<svg width="24" height="25" viewBox="0 0 24 25" fill="none" xmlns="http://www.w3.org/2000/svg">
<g clip-path="url(#clip0_4_166)">
<g clip-path="url(#clip1_4_166)">
<path fill-rule="evenodd" clip-rule="evenodd" d="M13.125 4.14062C13.125 3.72641 13.4608 3.39062 13.875 3.39062H17.1356C17.7304 3.39062 18.269 3.74208 18.5086 4.28651L21.9741 12.1628C22.4239 13.185 21.6565 14.2045 20.7004 14.3286C19.7998 14.4454 19.1533 14.721 18.653 15.1364C18.6296 15.1557 18.6064 15.1756 18.5835 15.1958L18.578 15.2007L18.5683 15.2093C18.1007 15.626 17.7147 16.2155 17.3824 17.0429C17.1577 17.6024 16.6142 18.0156 15.9646 18.0156H8.25C8.25 19.6725 6.90686 21.0156 5.25 21.0156C3.59314 21.0156 2.25 19.6725 2.25 18.0156H1.5C0.671572 18.0156 0 17.3441 0 16.5156V15.0156C0 13.2316 0.88989 11.6553 2.25 10.7066V10.1406C2.25 9.31218 2.92157 8.64062 3.75 8.64062H8.25C9.07845 8.64062 9.75 9.31218 9.75 10.1406V10.7066C11.1101 11.6553 12 13.2316 12 15.0156V16.5156H15.964C15.964 16.5156 15.9664 16.5146 15.9688 16.5128C15.9756 16.5081 15.9845 16.4985 15.9905 16.4838C16.3225 15.6572 16.7356 14.9451 17.2801 14.3709L15.8543 4.89062H13.875C13.4608 4.89062 13.125 4.55484 13.125 4.14062ZM5.25 19.5156C4.42157 19.5156 3.75 18.8441 3.75 18.0156H6.75C6.75 18.8441 6.07843 19.5156 5.25 19.5156ZM17.4936 5.70419L18.6465 13.3706C19.1981 13.1031 19.8167 12.9306 20.5074 12.8411C20.5433 12.8364 20.5755 12.8146 20.5931 12.7865C20.599 12.777 20.6009 12.7704 20.6015 12.7677L20.6012 12.7669L17.4936 5.70419ZM10.5 16.5156V15.0156C10.5 12.9446 8.82105 11.2656 6.75 11.2656H5.25C3.17893 11.2656 1.5 12.9446 1.5 15.0156V16.5156H10.5ZM19.5 18.0156C19.5 17.1872 20.1716 16.5156 21 16.5156C21.8284 16.5156 22.5 17.1872 22.5 18.0156C22.5 18.8441 21.8284 19.5156 21 19.5156C20.1716 19.5156 19.5 18.8441 19.5 18.0156ZM21 15.0156C19.3432 15.0156 18 16.3588 18 18.0156C18 19.6725 19.3432 21.0156 21 21.0156C22.6568 21.0156 24 19.6725 24 18.0156C24 16.3588 22.6568 15.0156 21 15.0156Z" fill="#3F4E5D" fill-opacity="0.6"/>
</g>
</g>
<defs>
<clipPath id="clip0_4_166">
<rect width="24" height="24" fill="white" transform="translate(0 0.390625)"/>
</clipPath>
<clipPath id="clip1_4_166">
<rect width="24" height="24" fill="white" transform="translate(0 0.390625)"/>
</clipPath>
</defs>
</svg>
